<?xml version="1.0" encoding="UTF-8" standalone="no"?><svg width="1357" height="581" viewBox="0 0 1357 581" fill="none" xmlns="http://www.w3.org/2000/svg">
<path d="M274.298 191.402C274.298 266.885 213.107 328.076 137.624 328.076C62.1412 328.076 0.950195 266.885 0.950195 191.402C0.950195 115.919 62.1412 54.7282 137.624 54.7282C213.107 54.7282 274.298 115.919 274.298 191.402Z" fill="#D4AF37"/>
<path d="M249.22 501.295C238.969 503.613 238.968 488.696 238.968 488.696C238.968 488.696 208.898 128.334 238.968 68.4719C269.039 8.61027 286.682 11.2282 360.087 30.1895C451.59 46.3512 445.439 67.8322 539.296 24.4631C623.747 -14.5597 706.334 2.01152 746.839 18.8887C754.908 22.2508 763.031 25.3695 771.619 27.0009C860.159 43.8206 1030.5 63.6962 1095.53 24.4631C1163.87 -16.7682 1316.63 7.28338 1380.67 24.4631V552.452C1354.85 531.2 1272.46 501.448 1179.82 552.452C1087.18 603.457 988.333 573.704 950.491 552.452C899.487 531.2 774.547 501.448 682.816 552.452C591.085 603.457 470.7 573.704 421.975 552.452C384.766 540.49 376.185 472.585 249.22 501.295Z" fill="#49BFBF"/>
</svg>
