<?xml version="1.0" encoding="UTF-8" standalone="no"?><svg width="1920" height="939" viewBox="0 0 1920 939" fill="none" xmlns="http://www.w3.org/2000/svg">
<path d="M1 18L1918 36V764.672C1918 829.894 1865.91 883.173 1800.7 884.642L1474 892L1265.1 883.296C1244.42 882.434 1223.71 883.715 1203.29 887.118L994 922L803.433 935.498C770.7 937.817 737.807 934.749 706.067 926.418L559.524 887.95C529.359 880.032 498.144 876.865 467.004 878.565L64.27 900.547C29.8991 902.423 1 875.058 1 840.636V18Z" fill="url(#paint0_linear_17_14)"/>
<path d="M0 0H1920V746.542C1920 815.194 1867.38 872.385 1798.96 878.086L1477.31 904.891C1452.53 906.956 1427.6 905.933 1403.07 901.846L1249.32 876.22C1216.67 870.778 1183.33 870.778 1150.68 876.22L960 908L769.433 921.498C736.7 923.817 703.807 920.749 672.067 912.418L531.641 875.556C497.482 866.589 462.008 863.724 426.853 867.093L65.7238 901.701C30.4866 905.078 0 877.374 0 841.975V0Z" fill="url(#paint1_linear_17_14)"/>
<g opacity="0.3" filter="url(#filter0_f_17_14)">
<circle cx="4" cy="509" r="60" fill="url(#paint2_linear_17_14)"/>
</g>
<path d="M872.977 630.759C872.577 631.002 872.372 631.057 872.288 631.187C865.437 641.78 862.962 653.179 865.903 665.487C866.65 668.614 868.189 671.446 870.309 673.921C874.884 679.257 882.074 680.934 888.582 678.169C891.953 676.737 894.953 674.842 896.949 671.623C896.425 669.994 895.804 668.422 895.421 666.793C894.816 664.223 895.109 661.731 896.665 659.487C897.834 657.799 899.367 657.008 900.685 657.464C902.349 658.04 903.044 659.489 902.973 661.015C902.874 663.15 902.457 665.293 901.964 667.385C901.645 668.742 900.948 670.013 900.431 671.295C904.254 676.768 911.164 676.516 916.741 670.672C916.554 669.733 916.293 668.74 916.168 667.73C915.719 664.093 916.461 660.759 919.122 658.073C920.122 657.063 921.381 656.254 922.956 656.81C924.171 657.239 924.906 658.735 924.767 660.619C924.545 663.611 923.296 666.256 921.741 668.775C921.2 669.653 920.599 670.494 920.051 671.314C925.638 679.99 937.176 682.372 943.55 674.651C943.804 675.36 944.187 675.892 944.099 676.332C944 676.819 943.545 677.324 943.114 677.647C939.048 680.692 934.611 682.249 929.544 680.717C925.767 679.574 922.529 677.508 919.738 674.744C919.341 674.35 918.934 673.965 918.521 673.585C918.461 673.53 918.35 673.529 918.082 673.45C917.646 673.721 917.075 674.036 916.546 674.41C910.007 679.019 905.354 678.96 898.807 674.037C898.25 674.575 897.66 675.134 897.084 675.706C893.682 679.087 889.634 681.202 884.877 681.897C877.054 683.04 869.864 679.438 865.847 672.422C863.66 668.603 862.423 664.486 862.057 660.117C861.169 649.514 863.455 639.701 869.74 630.913C870.07 630.451 870.393 629.984 870.707 629.512C870.75 629.448 870.725 629.338 870.759 628.883C868.763 629.35 867.136 630.361 865.479 631.268C863.85 632.16 862.258 633.117 860.513 634.124C859.987 632.676 860.448 631.776 861.213 631.033C862.093 630.179 862.967 629.233 864.024 628.662C866.856 627.13 869.728 625.64 872.694 624.397C875.055 623.407 876.289 624.319 876.169 626.668C875.916 631.653 875.625 636.636 875.313 641.618C875.264 642.398 875.024 643.168 874.826 644.186C873.25 643.538 873.281 642.477 873.251 641.492C873.147 638.012 873.071 634.532 872.977 630.759ZM922.108 659.197C918.704 661.487 917.557 664.935 919.033 668.257C920.687 665.432 922.317 662.841 922.108 659.197ZM900.179 659.891C897.401 662.149 896.986 664.984 898.893 668.031C900.087 665.384 901.064 662.907 900.179 659.891Z" fill="url(#paint3_linear_17_14)"/>
<defs>
<filter id="filter0_f_17_14" x="-176" y="329" width="360" height="360" filterUnits="userSpaceOnUse" color-interpolation-filters="sRGB">
<feFlood flood-opacity="0" result="BackgroundImageFix"/>
<feBlend mode="normal" in="SourceGraphic" in2="BackgroundImageFix" result="shape"/>
<feGaussianBlur stdDeviation="60" result="effect1_foregroundBlur_17_14"/>
</filter>
<linearGradient id="paint0_linear_17_14" x1="33.9999" y1="36.0001" x2="1166.5" y2="939" gradientUnits="userSpaceOnUse">
<stop stop-color="#FFFCF1"/>
<stop offset="0.82" stop-color="#D7F8F8"/>
</linearGradient>
<linearGradient id="paint1_linear_17_14" x1="3.10331e-05" y1="21.9999" x2="1132.5" y2="925" gradientUnits="userSpaceOnUse">
<stop stop-color="#FFFCF1"/>
<stop offset="0.82" stop-color="#E8FFFF"/>
</linearGradient>
<linearGradient id="paint2_linear_17_14" x1="4" y1="449" x2="4" y2="569" gradientUnits="userSpaceOnUse">
<stop stop-color="#D4AF37"/>
<stop offset="1" stop-color="#49BFBF"/>
</linearGradient>
<linearGradient id="paint3_linear_17_14" x1="955.624" y1="707.828" x2="848" y2="623.799" gradientUnits="userSpaceOnUse">
<stop stop-color="#49BFBF" stop-opacity="0"/>
<stop offset="1" stop-color="#49BFBF"/>
</linearGradient>
</defs>
</svg>
