<?xml version="1.0" encoding="UTF-8" standalone="no"?><svg width="176" height="176" viewBox="0 0 176 176" fill="none" xmlns="http://www.w3.org/2000/svg">
<rect x="88.0957" y="22.0265" width="98.4969" height="98.4969" rx="24.0516" transform="rotate(45 88.0957 22.0265)" stroke="#49BFBF" stroke-width="0.763542"/>
<g filter="url(#filter0_d_107_650)">
<rect x="88.0957" y="13.8511" width="99.2604" height="99.2604" rx="24.4333" transform="rotate(45 88.0957 13.8511)" fill="white"/>
</g>
<path fill-rule="evenodd" clip-rule="evenodd" d="M91.2657 61.1996C97.7225 61.1996 104.18 61.2023 110.637 61.1907C110.942 61.1898 111.003 61.2505 111.002 61.5567C110.992 76.5835 110.992 91.6103 111.002 106.638C111.002 106.943 110.942 107.004 110.637 107.003C95.6101 106.993 80.5833 106.993 65.5556 107.003C65.2503 107.003 65.1895 106.943 65.1904 106.638C65.2003 91.6112 65.2003 76.5844 65.1904 61.5567C65.1904 61.2514 65.2503 61.1907 65.5556 61.1907C73.9176 61.2014 82.2787 61.1996 90.6398 61.1996C90.3961 61.3541 90.1399 61.4835 89.9193 61.6799C87.3998 63.9209 86.3079 66.7261 86.741 70.0598C87.0561 72.482 88.1953 74.4962 90.1488 76.0068C90.3015 76.1246 90.297 76.2443 90.297 76.3889C90.2988 77.1174 90.2881 77.8468 90.3015 78.5754C90.3095 79.0191 90.5979 79.3128 90.9782 79.3102C91.3585 79.3075 91.6282 79.0128 91.6353 78.5664C91.6442 78.0308 91.6719 77.4924 91.6282 76.9612C91.5844 76.421 91.7585 76.0844 92.179 75.6988C94.8253 73.2721 95.7547 70.2526 95.0851 66.7359C94.9851 66.2127 94.7655 66.0583 94.2119 66.0591C93.9852 65.5494 93.8539 64.994 93.4888 64.5512C93.7879 64.2968 93.9798 63.9736 93.7361 63.6182C93.0754 62.6522 92.3504 61.738 91.2657 61.1996ZM90.5336 99.3018C92.6754 99.3018 94.8173 99.3009 96.9591 99.3018C98.1349 99.3027 99.1447 98.9108 99.9277 98.0162C103.219 94.2566 106.507 90.4943 109.79 86.7276C110.401 86.0258 110.34 85.1366 109.671 84.492C108.302 83.1733 106.166 83.1555 104.745 84.4598C102.062 86.9258 99.3813 89.3926 96.7091 91.8701C96.4368 92.1228 96.1627 92.2228 95.7958 92.2192C94.0557 92.204 92.3156 92.213 90.5747 92.2112C90.2925 92.2112 90.0077 92.2201 89.7283 92.188C89.3863 92.1478 89.2015 91.9183 89.1855 91.5826C89.1694 91.2273 89.3399 90.9827 89.6997 90.9068C89.8435 90.8764 89.9952 90.8773 90.1434 90.8773C91.4523 90.8755 92.7611 90.8773 94.07 90.8755C94.3968 90.8755 94.7244 90.8746 95.0449 90.7925C96.4448 90.4345 97.3234 89.1435 97.152 87.698C96.993 86.358 95.8342 85.3009 94.428 85.2946C90.5907 85.2785 86.7526 85.2705 82.9153 85.2982C80.4967 85.3152 78.3888 86.1892 76.621 87.8364C75.3265 89.0435 74.0658 90.2863 72.7971 91.5201C72.6293 91.6826 72.5293 91.7478 72.2918 91.5844C71.7436 91.2059 71.0642 91.2871 70.5803 91.7666C69.1322 93.2004 67.6885 94.6387 66.2582 96.0895C65.6601 96.6966 65.6556 97.4725 66.2564 98.076C69.0572 100.891 71.8668 103.698 74.6818 106.499C75.2407 107.055 76.0434 107.063 76.6041 106.51C78.0781 105.06 79.536 103.594 80.9904 102.125C81.3779 101.734 81.4931 101.238 81.2886 100.726C81.1841 100.463 81.2859 100.354 81.4618 100.223C82.301 99.6 83.2367 99.2938 84.2857 99.2992C86.3687 99.309 88.4507 99.3018 90.5336 99.3018ZM99.625 80.3994C105.06 80.3628 109.282 75.6854 108.781 70.2803C108.698 69.3848 108.251 68.9393 107.362 68.884C106.44 68.8268 105.525 68.8688 104.613 69.0491C100.021 69.958 96.6975 74.5524 97.3305 79.1477C97.3582 79.3459 97.2787 79.4485 97.1591 79.5664C96.6627 80.0583 96.1672 80.5503 95.6779 81.0493C95.311 81.4234 95.2887 81.8046 95.6011 82.1011C95.8886 82.3725 96.2779 82.3377 96.6243 81.9984C97.0377 81.5922 97.4582 81.1913 97.8519 80.7663C98.1233 80.4735 98.3697 80.2431 98.8269 80.386C99.0706 80.4619 99.3581 80.3994 99.625 80.3994ZM75.5389 68.8893C75.2273 68.8893 74.9131 68.867 74.6033 68.8938C73.8274 68.9599 73.3667 69.3804 73.2971 70.1562C72.9944 73.5516 74.1783 76.3469 76.8398 78.4575C78.8075 80.0173 81.0788 80.6654 83.5947 80.3279C83.7706 80.3047 83.8376 80.4029 83.9268 80.4904C84.4232 80.9815 84.9143 81.4797 85.4107 81.9698C85.7785 82.3332 86.1749 82.3778 86.4669 82.0993C86.7776 81.8029 86.7365 81.4073 86.3472 81.0109C86.024 80.6824 85.7196 80.3297 85.3634 80.0405C84.8768 79.6458 84.5955 79.2093 84.8107 78.5656C84.8375 78.4843 84.8214 78.3888 84.8232 78.2995C84.8893 73.1105 80.7226 68.8733 75.5389 68.8893Z" fill="#FDFDFD"/>
<path fill-rule="evenodd" clip-rule="evenodd" d="M94.2136 66.0583C94.7671 66.0583 94.9868 66.2127 95.0867 66.735C95.7564 70.2527 94.8269 73.2712 92.1807 75.6979C91.7602 76.0836 91.5852 76.4193 91.6298 76.9603C91.6736 77.4924 91.6459 78.0308 91.637 78.5656C91.6298 79.012 91.3602 79.3066 90.9798 79.3093C90.5995 79.3119 90.312 79.0182 90.3031 78.5745C90.2897 77.846 90.2995 77.1165 90.2986 76.388C90.2986 76.2434 90.3031 76.1237 90.1504 76.0059C88.197 74.4953 87.0569 72.4811 86.7417 70.0589C86.3078 66.7252 87.4006 63.92 89.9201 61.6791C90.1406 61.4835 90.3968 61.3541 90.6406 61.1987C90.8486 61.1987 91.0575 61.1987 91.2655 61.1987C92.3503 61.7371 93.0753 62.6513 93.7377 63.6156C93.9823 63.9709 93.7895 64.2941 93.4904 64.5485C93.0601 64.6851 92.7467 64.5423 92.4985 64.1718C92.1664 63.6763 91.7521 63.2495 91.3236 62.8335C91.0754 62.5915 90.9111 62.5745 90.6352 62.8218C87.389 65.7324 87.0774 70.7437 89.9549 74.0167C90.0424 74.1167 90.1067 74.264 90.2969 74.2712C90.2969 72.0338 90.2951 69.8179 90.2977 67.6019C90.2986 67.0368 90.537 66.735 90.9691 66.7323C91.4013 66.7297 91.6352 67.027 91.6361 67.5948C91.6378 69.6777 91.637 71.7606 91.637 73.8426C91.637 73.9846 91.637 74.1274 91.637 74.2756C91.7075 74.2658 91.7441 74.2721 91.7593 74.2569C91.8441 74.1739 91.9289 74.0899 92.0048 73.9989C93.6913 71.9954 94.2841 69.7045 93.7913 67.135C93.6743 66.519 93.7333 66.3457 94.2136 66.0583Z" fill="#262626"/>
<path fill-rule="evenodd" clip-rule="evenodd" d="M90.5337 99.3019C88.4517 99.3019 86.3688 99.309 84.2868 99.2992C83.2377 99.2938 82.3021 99.6 81.4628 100.223C81.2861 100.354 81.1843 100.462 81.2896 100.726C81.4941 101.238 81.3789 101.734 80.9914 102.125C79.5371 103.594 78.0791 105.06 76.6051 106.51C76.0444 107.062 75.2418 107.055 74.6829 106.499C71.867 103.698 69.0582 100.891 66.2575 98.076C65.6575 97.4725 65.6611 96.6966 66.2593 96.0895C67.6896 94.6387 69.1332 93.1995 70.5813 91.7666C71.0652 91.2871 71.7438 91.2059 72.2929 91.5845C72.5303 91.7487 72.6312 91.6827 72.7982 91.5202C74.0669 90.2863 75.3275 89.0435 76.6221 87.8365C78.3898 86.1892 80.4968 85.3161 82.9163 85.2982C86.7536 85.2705 90.5909 85.2786 94.429 85.2964C95.8352 85.3027 96.9941 86.3598 97.153 87.6999C97.3244 89.1453 96.4459 90.4363 95.046 90.7943C94.7264 90.8765 94.3978 90.8774 94.071 90.8774C92.7622 90.8791 91.4533 90.8774 90.1445 90.8791C89.9963 90.8791 89.8445 90.8782 89.7008 90.9086C89.3419 90.9836 89.1704 91.2282 89.1865 91.5845C89.2017 91.921 89.3874 92.1496 89.7293 92.1898C90.0088 92.2228 90.2936 92.213 90.5757 92.213C92.3158 92.2148 94.0567 92.205 95.7968 92.221C96.1638 92.2246 96.4379 92.1246 96.7102 91.8719C99.3814 89.3944 102.063 86.9276 104.746 84.4617C106.166 83.1564 108.303 83.1751 109.672 84.4938C110.342 85.1384 110.402 86.0276 109.791 86.7294C106.508 90.4961 103.22 94.2575 99.9287 98.018C99.1457 98.9126 98.1369 99.3045 96.9601 99.3036C94.8174 99.301 92.6756 99.3019 90.5337 99.3019ZM74.5624 104.448C74.8186 104.715 75.0909 104.968 75.3257 105.253C75.5578 105.535 75.7159 105.539 75.9819 105.266C77.2256 103.991 78.4871 102.732 79.7594 101.486C80.012 101.238 80.0013 101.109 79.7549 100.868C78.2738 99.4099 76.8087 97.9359 75.34 96.4654C74.9159 96.0413 74.8882 95.8485 75.157 95.328C75.6989 95.0539 75.8418 95.0771 76.2864 95.5173C77.4434 96.6636 78.6014 97.8109 79.7585 98.9572C79.854 99.0653 79.954 99.1706 80.0442 99.2831C80.1772 99.4492 80.2915 99.4626 80.4709 99.3188C80.787 99.0653 81.1307 98.8465 81.4637 98.6135C82.5431 98.085 83.6877 97.9439 84.8814 97.9537C88.258 97.9796 91.6355 97.9635 95.0129 97.9618C95.5183 97.9618 96.0236 97.9484 96.5289 97.9412C97.5806 98.0644 98.4333 97.7475 99.1306 96.9136C100.226 95.6021 101.372 94.3334 102.497 93.0469C104.551 90.6961 106.601 88.3427 108.662 86C108.894 85.7366 108.901 85.5607 108.622 85.3482C107.988 84.867 107.303 84.6956 106.533 84.9563C106.15 85.0214 105.862 85.2536 105.589 85.5062C102.912 87.9695 100.23 90.4274 97.5655 92.904C97.0771 93.3585 96.5486 93.5709 95.8843 93.5647C93.9835 93.5468 92.0828 93.5442 90.182 93.5656C89.4633 93.5736 88.8374 93.4049 88.3214 92.8924C87.6741 92.0005 87.6696 91.1077 88.3151 90.2131C88.8267 89.6971 89.4517 89.5203 90.1686 89.5319C91.2185 89.548 92.2694 89.5203 93.3202 89.5105C93.7327 89.5622 94.1478 89.5578 94.5585 89.5158C95.3192 89.4373 95.854 88.7935 95.829 88.015C95.8049 87.2749 95.2236 86.674 94.4728 86.6392C94.0898 86.6214 93.705 86.6446 93.3211 86.6499C89.8865 86.6446 86.4518 86.6276 83.0181 86.6383C80.8209 86.6455 78.9407 87.4597 77.3613 88.9784C76.2248 90.0711 75.0936 91.1684 73.9597 92.263C73.491 92.7156 73.4794 92.7281 73.9419 93.1674C74.2999 93.5067 74.3731 93.8575 74.0999 94.2736C73.6874 94.5361 73.3294 94.487 72.9892 94.1245C72.5937 93.7022 72.1652 93.3102 71.7679 92.8897C71.6063 92.7183 71.5027 92.7165 71.3447 92.8897C71.0358 93.229 70.7081 93.5504 70.3885 93.8799C69.3984 94.861 68.4163 95.8503 67.4119 96.8172C67.1762 97.044 67.2128 97.1591 67.4244 97.3689C69.102 99.0278 70.7653 100.701 72.4375 102.366C73.1392 103.061 73.8535 103.752 74.5624 104.448Z" fill="#262626"/>
<path fill-rule="evenodd" clip-rule="evenodd" d="M99.6251 80.3993C99.3573 80.3993 99.0707 80.4618 98.8269 80.3859C98.3698 80.2431 98.1234 80.4734 97.852 80.7663C97.4583 81.1913 97.0386 81.5921 96.6244 81.9984C96.278 82.3376 95.8887 82.3724 95.6012 82.101C95.2879 81.8055 95.3102 81.4243 95.678 81.0493C96.1673 80.5502 96.6628 80.0583 97.1592 79.5664C97.2779 79.4485 97.3574 79.3467 97.3306 79.1476C96.6967 74.5524 100.02 69.958 104.613 69.0491C105.525 68.8688 106.44 68.8268 107.362 68.8839C108.251 68.9393 108.698 69.3839 108.781 70.2803C109.283 75.6853 105.06 80.3627 99.6251 80.3993ZM98.5778 78.0066C98.6252 78.0397 98.6716 78.0727 98.7189 78.1057C98.8162 77.9754 98.8992 77.8316 99.0126 77.7174C100.45 76.2737 101.891 74.8345 103.333 73.3953C103.437 73.2908 103.541 73.1766 103.665 73.1007C103.955 72.9239 104.24 72.9623 104.478 73.2007C104.718 73.4408 104.742 73.7292 104.569 74.0149C104.486 74.1515 104.361 74.2658 104.245 74.3809C102.817 75.8121 101.385 77.2397 99.9581 78.6727C99.8519 78.7798 99.6849 78.853 99.6769 79.0762C101.488 79.0387 103.1 78.47 104.489 77.3379C106.545 75.6621 107.529 73.4712 107.485 70.8222C107.476 70.2178 107.456 70.224 106.865 70.2026C104.9 70.1303 103.135 70.6928 101.604 71.9213C99.6626 73.4828 98.6868 75.5371 98.5778 78.0066Z" fill="#262626"/>
<path fill-rule="evenodd" clip-rule="evenodd" d="M75.5394 68.8893C80.7221 68.8733 84.8897 73.1105 84.8245 78.2995C84.8236 78.3888 84.8397 78.4843 84.812 78.5655C84.5978 79.2102 84.8781 79.6458 85.3647 80.0405C85.7209 80.3288 86.0254 80.6815 86.3485 81.0109C86.7378 81.4073 86.7789 81.8029 86.4682 82.0993C86.1762 82.3778 85.7798 82.3332 85.412 81.9698C84.9147 81.4788 84.4246 80.9815 83.9282 80.4904C83.8389 80.402 83.7719 80.3038 83.596 80.3279C81.0801 80.6654 78.8088 80.0173 76.8411 78.4575C74.1787 76.3469 72.9949 73.5516 73.2984 70.1562C73.3681 69.3804 73.8287 68.9599 74.6046 68.8938C74.9135 68.867 75.2278 68.8893 75.5394 68.8893ZM82.5131 79.0968C82.3068 78.8798 82.1997 78.762 82.0872 78.6495C80.6569 77.2183 79.2258 75.788 77.7955 74.3569C77.691 74.2524 77.575 74.1497 77.5017 74.0239C77.325 73.7194 77.3473 73.4194 77.616 73.1757C77.8669 72.948 78.1517 72.9302 78.4312 73.1266C78.5517 73.2114 78.6535 73.323 78.7588 73.4284C80.2007 74.8684 81.6408 76.3112 83.0862 77.7486C83.1952 77.8567 83.2711 78.0227 83.4719 78.0334C83.4746 77.9683 83.4818 77.9111 83.4791 77.8549C83.2782 73.3462 79.4757 69.9348 74.9733 70.2035C74.6323 70.2241 74.5921 70.3776 74.5805 70.6446C74.5001 72.4722 74.9349 74.1605 75.9974 75.6541C77.5562 77.8433 79.6989 78.9673 82.5131 79.0968Z" fill="#262626"/>
<path fill-rule="evenodd" clip-rule="evenodd" d="M94.214 66.0582C93.7328 66.3466 93.6748 66.5189 93.7935 67.1367C94.2863 69.7071 93.6935 71.9971 92.007 74.0006C91.9311 74.0917 91.8463 74.1756 91.7615 74.2586C91.7463 74.2738 91.7097 74.2675 91.6392 74.2774C91.6392 74.1283 91.6392 73.9863 91.6392 73.8444C91.6392 71.7614 91.6401 69.6785 91.6383 67.5965C91.6374 67.0278 91.4035 66.7314 90.9714 66.7341C90.5392 66.7367 90.3009 67.0385 90.3 67.6037C90.2973 69.8196 90.2991 72.0364 90.2991 74.2729C90.1098 74.2667 90.0455 74.1184 89.9571 74.0185C87.0796 70.7463 87.3912 65.7341 90.6374 62.8236C90.9133 62.5763 91.0767 62.5932 91.3258 62.8352C91.7535 63.2512 92.1677 63.678 92.5007 64.1735C92.7489 64.544 93.0623 64.6869 93.4926 64.5503C93.856 64.9931 93.9881 65.5484 94.214 66.0582Z" fill="#EDCC61"/>
<path fill-rule="evenodd" clip-rule="evenodd" d="M88.3193 92.8898C88.8354 93.4031 89.4612 93.571 90.1799 93.5629C92.0807 93.5415 93.9815 93.5442 95.8823 93.562C96.5465 93.5683 97.075 93.3549 97.5634 92.9014C100.228 90.4247 102.91 87.9668 105.587 85.5036C105.86 85.2518 106.148 85.0197 106.531 84.9536C106.986 85.5188 106.992 85.8616 106.532 86.408C106.245 86.7482 105.934 87.0669 105.64 87.399C104.942 88.1856 104.242 88.9712 103.553 89.7649C102.447 91.0381 101.352 92.3228 100.243 93.5942C99.3079 94.6655 98.3339 95.7039 97.4295 96.7993C97.1233 97.1708 96.6688 97.435 96.5278 97.9386C96.0224 97.9457 95.5171 97.9591 95.0118 97.9591C91.6343 97.9609 88.2577 97.977 84.8802 97.9511C83.6865 97.9421 82.5429 98.0823 81.4626 98.6108C80.8822 98.6662 80.301 98.7153 79.7573 98.9546C78.6002 97.8082 77.4432 96.661 76.2852 95.5146C75.8406 95.0744 75.6977 95.0512 75.1558 95.3253C74.8031 94.9727 74.4496 94.62 74.0969 94.2665C74.3701 93.8513 74.296 93.5004 73.938 93.1612C73.4755 92.7219 73.4871 92.7094 73.9559 92.2568C75.0897 91.1622 76.2209 90.0649 77.3575 88.9721C78.9368 87.4535 80.8171 86.6392 83.0143 86.6321C86.4489 86.6205 89.8826 86.6383 93.3172 86.6437C94.0163 87.6463 94.0243 88.4909 93.3163 89.5051C92.2655 89.5141 91.2147 89.5426 90.1647 89.5266C89.4478 89.515 88.8229 89.6917 88.3113 90.2078C87.9711 90.2087 87.631 90.2096 87.2908 90.2096C86.4917 90.2113 85.8177 90.8265 85.8195 91.5514C85.8221 92.2773 86.4953 92.8862 87.297 92.8871C87.639 92.8906 87.9792 92.8898 88.3193 92.8898Z" fill="#FCDDC4"/>
<path fill-rule="evenodd" clip-rule="evenodd" d="M74.5626 104.448C73.8537 103.753 73.1404 103.061 72.4359 102.361C70.7637 100.696 69.1004 99.0224 67.4229 97.3636C67.2104 97.1538 67.1747 97.0386 67.4104 96.8118C68.4139 95.8449 69.3968 94.8557 70.387 93.8745C70.5941 93.8799 70.6878 94.0513 70.8102 94.1727C71.8949 95.2521 73.0002 96.3119 74.0519 97.4225C75.5233 98.976 75.9795 100.796 75.3429 102.864C75.167 103.436 74.8108 103.915 74.5626 104.448Z" fill="#49BFBF"/>
<path fill-rule="evenodd" clip-rule="evenodd" d="M74.5624 104.448C74.8106 103.915 75.1677 103.436 75.3427 102.865C75.9784 100.796 75.523 98.9768 74.0517 97.4233C73 96.3127 71.8947 95.2529 70.8099 94.1735C70.6876 94.0521 70.5938 93.8798 70.3867 93.8753C70.7063 93.5468 71.0349 93.2245 71.3429 92.8852C71.5009 92.7111 71.6045 92.7138 71.7661 92.8852C72.1643 93.3057 72.5919 93.6976 72.9875 94.1199C73.3276 94.4824 73.6856 94.5324 74.0981 94.269C74.4508 94.6217 74.8043 94.9743 75.157 95.327C74.8882 95.8475 74.9168 96.0404 75.3409 96.4644C76.8096 97.9349 78.2738 99.4098 79.7558 100.867C80.0013 101.109 80.012 101.238 79.7603 101.485C78.4871 102.731 77.2265 103.99 75.9828 105.265C75.7159 105.538 75.5587 105.534 75.3266 105.252C75.0909 104.968 74.8177 104.715 74.5624 104.448Z" fill="#49BFBF"/>
<path fill-rule="evenodd" clip-rule="evenodd" d="M96.5283 97.9394C96.6694 97.4358 97.1238 97.1707 97.4301 96.8002C98.3354 95.7047 99.3085 94.6664 100.243 93.595C101.353 92.3236 102.447 91.0389 103.554 89.7658C104.243 88.9721 104.943 88.1864 105.64 87.3998C105.935 87.0668 106.246 86.7481 106.532 86.4088C106.993 85.8624 106.986 85.5187 106.531 84.9544C107.301 84.6937 107.987 84.8652 108.62 85.3464C108.9 85.5589 108.893 85.7348 108.661 85.9981C106.599 88.3408 104.549 90.6943 102.496 93.045C101.372 94.3325 100.225 95.6011 99.1291 96.9118C98.4327 97.7457 97.5792 98.0635 96.5283 97.9394Z" fill="#F8C7A7"/>
<path fill-rule="evenodd" clip-rule="evenodd" d="M93.3184 89.5078C94.0264 88.4936 94.0183 87.649 93.3193 86.6463C93.7032 86.6419 94.088 86.6187 94.471 86.6356C95.2218 86.6705 95.803 87.2722 95.8271 88.0114C95.8521 88.7909 95.3173 89.4337 94.5567 89.5123C94.1451 89.5551 93.7308 89.5596 93.3184 89.5078Z" fill="#FBC9A8"/>
<path fill-rule="evenodd" clip-rule="evenodd" d="M88.3194 92.8896C87.9792 92.8896 87.639 92.8905 87.2989 92.8896C86.4972 92.8887 85.824 92.2798 85.8213 91.554C85.8186 90.829 86.4936 90.2139 87.2926 90.2121C87.6328 90.2112 87.973 90.2103 88.3131 90.2103C87.6676 91.1049 87.673 91.9977 88.3194 92.8896Z" fill="#FBC9A8"/>
<path fill-rule="evenodd" clip-rule="evenodd" d="M79.7578 98.9563C80.3006 98.717 80.8827 98.6679 81.4631 98.6125C81.1309 98.8456 80.7863 99.0643 80.4703 99.3179C80.2908 99.4616 80.1765 99.4473 80.0435 99.2822C79.9533 99.1697 79.8533 99.0652 79.7578 98.9563Z" fill="#F0C0A1"/>
<path fill-rule="evenodd" clip-rule="evenodd" d="M98.5776 78.0066C98.6866 75.5363 99.6624 73.4828 101.604 71.9231C103.134 70.6937 104.9 70.1321 106.865 70.2044C107.456 70.2267 107.475 70.2196 107.485 70.824C107.53 73.473 106.545 75.6639 104.489 77.3397C103.1 78.4718 101.488 79.0396 99.6767 79.078C99.6838 78.8548 99.8517 78.7807 99.9579 78.6745C101.385 77.2415 102.816 75.813 104.245 74.3827C104.36 74.2676 104.485 74.1533 104.568 74.0167C104.742 73.731 104.717 73.4426 104.478 73.2025C104.241 72.9632 103.955 72.9248 103.665 73.1025C103.541 73.1784 103.437 73.2926 103.333 73.3971C101.891 74.8363 100.45 76.2755 99.0124 77.7192C98.899 77.8334 98.816 77.9772 98.7187 78.1075C98.6714 78.0727 98.625 78.0397 98.5776 78.0066Z" fill="#D4AF37"/>
<path fill-rule="evenodd" clip-rule="evenodd" d="M82.5128 79.0968C79.6987 78.9674 77.5551 77.8433 75.998 75.6533C74.9356 74.1596 74.5008 72.4713 74.5811 70.6438C74.5927 70.3768 74.6329 70.2224 74.974 70.2027C79.4773 69.934 83.2797 73.3454 83.4797 77.854C83.4824 77.9112 83.4752 77.9674 83.4726 78.0326C83.2717 78.021 83.1958 77.8558 83.0869 77.7478C81.6423 76.3104 80.2022 74.8685 78.7594 73.4275C78.6541 73.3222 78.5523 73.2106 78.4318 73.1258C78.1523 72.9293 77.8675 72.9472 77.6167 73.1749C77.3479 73.4186 77.3256 73.7186 77.5024 74.023C77.5756 74.1489 77.6917 74.2507 77.7961 74.356C79.2255 75.7881 80.6567 77.2184 82.0869 78.6495C82.1994 78.762 82.3066 78.8799 82.5128 79.0968Z" fill="#D4AF37"/>
<defs>
<filter id="filter0_d_107_650" x="0.541307" y="0.301887" width="175.109" height="175.109" filterUnits="userSpaceOnUse" color-interpolation-filters="sRGB">
<feFlood flood-opacity="0" result="BackgroundImageFix"/>
<feColorMatrix in="SourceAlpha" type="matrix" values="0 0 0 0 0 0 0 0 0 0 0 0 0 0 0 0 0 0 127 0" result="hardAlpha"/>
<feOffset dy="3.81771"/>
<feGaussianBlur stdDeviation="13.7438"/>
<feComposite in2="hardAlpha" operator="out"/>
<feColorMatrix type="matrix" values="0 0 0 0 0.761771 0 0 0 0 0.858333 0 0 0 0 0.858333 0 0 0 0.39 0"/>
<feBlend mode="normal" in2="BackgroundImageFix" result="effect1_dropShadow_107_650"/>
<feBlend mode="normal" in="SourceGraphic" in2="effect1_dropShadow_107_650" result="shape"/>
</filter>
</defs>
</svg>
