<?xml version="1.0" encoding="UTF-8" standalone="no"?><svg width="176" height="176" viewBox="0 0 176 176" fill="none" xmlns="http://www.w3.org/2000/svg">
<rect x="88" y="22.0264" width="98.4969" height="98.4969" rx="24.0516" transform="rotate(45 88 22.0264)" stroke="#49BFBF" stroke-width="0.763542"/>
<g filter="url(#filter0_d_107_601)">
<rect x="88" y="13.8511" width="99.2604" height="99.2604" rx="24.4333" transform="rotate(45 88 13.8511)" fill="white"/>
</g>
<path fill-rule="evenodd" clip-rule="evenodd" d="M74.1355 106.994C71.2289 106.994 68.3223 106.989 65.4146 107.001C65.1474 107.002 65.0938 106.947 65.0938 106.68C65.1021 91.6247 65.1021 76.5683 65.0938 61.5131C65.0938 61.2459 65.145 61.1791 65.4146 61.1922C65.9644 61.2185 66.5178 61.2006 67.0688 61.2006C66.8482 61.4355 66.6848 61.6717 66.686 62.0355C66.6991 67.0578 66.6919 72.0814 66.6967 77.105C66.6979 78.9978 67.3861 80.6174 68.6968 81.9723C69.4125 82.7106 70.1436 83.4346 70.8771 84.1561C71.6607 84.9266 72.783 84.9517 73.5153 84.2265C74.2536 83.4966 74.2392 82.3838 73.4723 81.5907C72.8927 80.9908 72.3095 80.3932 71.7143 79.8076C71.4209 79.519 71.2933 79.191 71.2623 78.7795C71.1824 77.7431 71.1788 76.6995 71.0118 75.669C70.9951 75.5688 70.9355 75.4007 71.0703 75.3541C71.2289 75.2993 71.2408 75.4746 71.285 75.576C71.3446 75.7119 71.3971 75.8515 71.4555 75.9875C71.7978 76.7866 72.4848 77.1789 73.2696 77.0251C74.0102 76.8808 74.5004 76.2403 74.504 75.3911C74.5088 74.3928 74.504 73.3934 74.5052 72.3951C74.5088 70.4367 73.9113 68.6787 72.7174 67.1306C72.486 66.83 72.3846 66.5187 72.387 66.1431C72.3977 64.8311 72.3798 63.5192 72.3977 62.2084C72.4025 61.8005 72.3262 61.4558 71.9886 61.2018C77.0575 61.2018 82.1253 61.2018 87.193 61.2018C87.1286 61.3592 86.9664 61.3246 86.8519 61.3592C85.4731 61.7659 84.5249 62.6473 84.0097 63.9771C83.9083 64.2395 83.7628 64.3373 83.5243 64.4172C80.1287 65.5527 77.7827 67.7997 76.46 71.1213C75.7671 72.8614 75.6979 74.6874 75.7528 76.5254C75.7599 76.7806 75.7062 76.9678 75.5011 77.142C75.166 77.427 74.9584 77.8039 74.838 78.2309C74.3287 80.0295 75.7814 82.0463 77.7493 82.1942C78.1858 82.2276 78.2133 82.3862 78.1989 82.7237C78.1524 83.8258 78.4339 84.8264 79.2354 85.6172C79.5002 85.8784 79.462 85.9344 79.1602 86.1109C75.4498 88.2769 73.2994 91.4887 73.0716 95.7931C72.9094 98.8691 73.0406 101.959 72.9977 105.041C72.9869 105.96 73.2684 106.625 74.1355 106.994Z" fill="#FDFDFD"/>
<path fill-rule="evenodd" clip-rule="evenodd" d="M108.928 61.2005C109.509 61.2005 110.091 61.2112 110.671 61.1945C110.865 61.1885 110.935 61.2315 110.897 61.4247C110.885 61.4819 110.896 61.544 110.896 61.6036C110.896 76.5992 110.894 91.596 110.904 106.592C110.904 106.927 110.829 107.004 110.493 107.003C107.586 106.988 104.679 106.995 101.772 106.995C102.677 106.626 102.982 106.21 102.983 105.303C102.987 102.381 102.992 99.4605 102.982 96.5384C102.974 93.8454 102.156 91.4183 100.523 89.275C99.4447 87.8593 98.1006 86.7513 96.4714 85.9033C97.5555 84.9837 97.8764 83.8018 97.7893 82.4743C97.7702 82.1845 97.9575 82.2274 98.134 82.2143C99.5163 82.1153 100.664 81.2316 101.083 79.9172C101.428 78.8378 101.286 77.8515 100.411 77.0584C100.25 76.9117 100.246 76.7626 100.246 76.5849C100.244 75.5568 100.315 74.5215 100.139 73.5054C99.3517 68.9708 96.7898 65.9235 92.4353 64.4028C92.2099 64.3241 92.0811 64.2227 91.9881 63.9818C91.4585 62.6162 90.4782 61.7324 89.0624 61.3281C88.9169 61.2863 88.7273 61.3782 88.6235 61.2005C93.7509 61.2005 98.8794 61.2005 104.007 61.2005C103.668 61.4533 103.592 61.798 103.598 62.2059C103.614 63.5023 103.596 64.7976 103.608 66.094C103.612 66.4995 103.506 66.8359 103.253 67.1615C102.341 68.3351 101.774 69.6637 101.58 71.1415C101.394 72.5512 101.519 73.9681 101.495 75.3815C101.481 76.2306 101.98 76.8723 102.717 77.0214C103.5 77.18 104.194 76.7852 104.54 75.9957C104.634 75.7786 104.676 75.5305 104.913 75.2741C104.935 76.623 104.774 77.8622 104.697 79.105C104.681 79.3817 104.493 79.5904 104.3 79.7848C103.723 80.3657 103.149 80.9513 102.577 81.5369C101.759 82.3741 101.723 83.4821 102.49 84.2323C103.234 84.9611 104.348 84.9169 105.16 84.1167C105.808 83.4786 106.44 82.8262 107.09 82.1905C108.594 80.7175 109.319 78.9416 109.309 76.8282C109.287 71.9561 109.297 67.0852 109.311 62.213C109.312 61.8063 109.23 61.4736 108.928 61.2005Z" fill="#FDFDFD"/>
<path fill-rule="evenodd" clip-rule="evenodd" d="M88.6256 61.2005C88.7305 61.3782 88.919 61.2864 89.0645 61.3281C90.4802 61.7324 91.4606 62.6162 91.9901 63.9818C92.0831 64.2228 92.212 64.3241 92.4374 64.4029C96.7919 65.9235 99.3537 68.9708 100.141 73.5054C100.317 74.5216 100.246 75.5568 100.248 76.5849C100.248 76.7626 100.252 76.9117 100.413 77.0584C101.288 77.8504 101.43 78.8379 101.086 79.9173C100.666 81.2316 99.5183 82.1142 98.136 82.2144C97.9595 82.2275 97.7722 82.1834 97.7913 82.4744C97.8796 83.8018 97.5576 84.9838 96.4734 85.9033C98.1026 86.7513 99.4456 87.8593 100.525 89.2751C102.158 91.4195 102.976 93.8454 102.984 96.5385C102.994 99.4606 102.989 102.381 102.985 105.304C102.984 106.211 102.678 106.626 101.774 106.995C94.7082 106.995 87.6416 106.995 80.5761 106.995C80.3638 106.799 80.1778 106.589 80.1504 106.283C80.278 105.804 80.5893 105.629 81.0783 105.646C81.8523 105.672 82.6287 105.639 83.4028 105.66C83.6783 105.667 83.7678 105.584 83.7725 105.317C83.7845 104.586 83.8858 103.862 84.017 103.144C84.5478 100.249 85.6105 97.5487 87.0309 94.9832C87.1645 94.7435 87.1812 94.5801 87.0214 94.3499C86.6219 93.7762 86.2509 93.1823 85.8705 92.5955C85.552 92.1017 85.5687 91.8942 85.9575 91.4493C86.4251 91.2847 86.7542 91.4457 87.0035 91.862C87.2623 92.2949 87.5509 92.71 87.8217 93.1358C87.9255 93.2992 88.0066 93.4089 88.158 93.1704C89.2947 91.3968 90.4372 89.6257 91.5774 87.8546C91.5882 87.845 91.5989 87.8355 91.6073 87.8248C91.6096 87.8212 91.6013 87.8104 91.5977 87.8033C91.5941 87.8224 91.5906 87.8415 91.587 87.8593C91.1755 87.8343 90.8261 88.0466 90.4492 88.1527C89.6811 88.3698 88.9535 88.7205 88.1342 88.7574C87.2742 88.7968 86.5145 88.4378 85.7202 88.2088C85.2872 88.0848 84.8853 87.8403 84.4142 87.8581C84.4106 87.8391 84.407 87.82 84.4035 87.8009C84.3999 87.8081 84.3915 87.8188 84.3939 87.8224C84.4011 87.8343 84.413 87.8426 84.4237 87.8534C84.7219 88.3257 85.0201 88.798 85.3171 89.2715C85.6105 89.7378 85.5926 89.9489 85.2264 90.3723C84.7851 90.5572 84.4607 90.4343 84.2043 90.03C83.6306 89.126 83.0402 88.2315 82.4546 87.3346C82.2125 86.9636 81.219 86.613 80.8397 86.7847C77.0053 88.5249 74.7511 91.4756 74.4279 95.6798C74.1822 98.8714 74.3837 102.084 74.3527 105.288C74.3503 105.596 74.4815 105.659 74.7582 105.655C75.8161 105.643 76.8741 105.666 77.932 105.643C78.4198 105.633 78.7323 105.804 78.8599 106.282C78.8289 106.586 78.6452 106.798 78.4317 106.992C77.0005 106.992 75.5693 106.992 74.138 106.992C73.271 106.624 72.9895 105.958 73.0014 105.038C73.0432 101.954 72.912 98.8642 73.0754 95.7895C73.3032 91.4851 75.4536 88.2732 79.164 86.1073C79.4658 85.9308 79.5039 85.8747 79.2391 85.6135C78.4377 84.824 78.1562 83.8221 78.2027 82.7201C78.217 82.3825 78.1896 82.2239 77.7531 82.1905C75.7851 82.0426 74.3325 80.0258 74.8417 78.2272C74.9622 77.8003 75.1697 77.4234 75.5049 77.1383C75.71 76.9642 75.7637 76.7781 75.7565 76.5217C75.7016 74.6826 75.772 72.8578 76.4638 71.1177C77.7853 67.796 80.1313 65.549 83.528 64.4136C83.7666 64.3337 83.9121 64.2359 84.0135 63.9735C84.5287 62.6437 85.4757 61.7623 86.8556 61.3556C86.9701 61.3222 87.1335 61.3556 87.1967 61.1981C87.6714 61.2005 88.1485 61.2005 88.6256 61.2005ZM87.997 62.559C86.9212 62.5602 86.1173 63.0372 85.4816 63.9783C86.7006 63.8161 87.8432 63.9234 88.9834 63.8709C89.4664 63.8984 89.9506 63.9258 90.5076 63.9568C89.8755 63.0325 89.0728 62.5554 87.997 62.559ZM91.8482 65.6647C91.7957 65.6397 91.7456 65.6063 91.6907 65.5908C89.625 65.0386 87.5164 65.0934 85.4387 65.3558C82.9699 65.6671 80.9292 66.886 79.331 68.8158C77.5622 70.9507 76.973 73.4398 77.0864 76.1496C77.0995 76.4549 77.2784 76.4251 77.4752 76.4287C78.1789 76.4406 78.1789 76.4418 78.1789 75.7918C78.1789 75.3147 78.1693 74.8376 78.1812 74.3618C78.1944 73.8417 78.4758 73.5674 78.9923 73.5543C79.2749 73.5472 79.5588 73.5579 79.8415 73.5519C82.3735 73.4983 84.6897 72.9186 86.5229 70.9924C87.2552 70.2231 88.486 70.3269 89.1265 71.1785C89.9268 72.2412 91.0109 72.7803 92.2477 73.1094C93.9068 73.5507 95.6016 73.5722 97.2999 73.5567C97.6899 73.775 97.8569 74.0982 97.8295 74.5502C97.8032 74.9951 97.8533 75.4459 97.8152 75.8896C97.777 76.3297 97.9416 76.4883 98.3626 76.4227C98.4354 76.412 98.5117 76.4156 98.5856 76.4227C98.8039 76.4406 98.9089 76.3667 98.9101 76.1245C98.916 75.2909 98.9291 74.456 98.7991 73.6318C98.3948 71.07 97.1938 68.9577 95.1603 67.3392C94.1763 66.5545 93.0922 65.9462 91.8482 65.6647ZM87.1884 87.2451C87.7155 87.5075 88.2582 87.4574 88.7901 87.2845C90.7819 86.6368 92.7701 85.9809 94.7571 85.3177C95.8353 84.9575 96.4424 84.1883 96.4531 83.06C96.477 80.4552 96.4591 77.8492 96.4662 75.2431C96.4674 75.0022 96.4042 74.8937 96.143 74.8973C95.6075 74.902 95.072 74.8794 94.5365 74.8675C93.8197 74.747 93.091 74.6981 92.3801 74.5347C90.7199 74.1518 89.2052 73.5316 88.1449 72.1016C87.8801 71.7438 87.6416 71.7593 87.2969 72.1159C86.4131 73.0307 85.3719 73.707 84.1852 74.1507C82.8196 74.6623 81.3979 74.8818 79.944 74.8985C79.7281 74.9008 79.5373 74.8806 79.5397 75.2086C79.5504 77.8599 79.5266 80.5112 79.5612 83.1626C79.5755 84.2252 80.1718 84.9361 81.1749 85.2891C81.7497 85.4907 82.3282 85.6791 82.9078 85.8664C84.3331 86.3279 85.7607 86.7859 87.1884 87.2451ZM94.2467 86.9219C93.8829 86.9636 93.6312 87.1437 93.4452 87.4717C93.1888 87.9237 92.8799 88.346 92.602 88.7861C91.1016 91.1607 89.4282 93.4316 88.0757 95.8968C86.4823 98.7998 85.3767 101.877 85.1048 105.214C85.0714 105.618 85.1954 105.661 85.5472 105.659C88.616 105.646 91.6848 105.653 94.7548 105.651C96.3184 105.649 97.8832 105.642 99.4468 105.637C100.028 105.642 100.61 105.628 101.189 105.659C101.542 105.678 101.653 105.565 101.652 105.21C101.64 102.304 101.706 99.3962 101.631 96.492C101.517 92.0922 99.4396 88.9006 95.4966 86.9243C95.0601 86.706 94.6641 86.6571 94.2467 86.9219ZM78.1932 79.34C78.1932 79.1468 78.1932 78.9536 78.1932 78.7592C78.1932 77.6655 78.1574 77.6357 77.0422 77.8134C76.5246 77.8957 76.162 78.2547 76.1024 78.7425C75.9772 79.7694 76.8538 80.813 77.8831 80.875C78.1073 80.8881 78.2075 80.8368 78.1979 80.5888C78.18 80.1737 78.192 79.7575 78.1932 79.34ZM97.8056 79.3436C97.8056 79.7598 97.8176 80.1773 97.8009 80.5935C97.7901 80.844 97.8987 80.9048 98.1181 80.8738C98.9053 80.7629 99.473 80.3514 99.7736 79.6155C100.198 78.5731 99.6758 77.8003 98.5534 77.7824C98.4044 77.78 98.2553 77.7919 98.1074 77.78C97.87 77.7609 97.7949 77.8659 97.8032 78.0937C97.8152 78.5099 97.8056 78.9262 97.8056 79.3436Z" fill="#262626"/>
<path fill-rule="evenodd" clip-rule="evenodd" d="M71.9885 61.2004C72.326 61.4545 72.4035 61.7991 72.3976 62.207C72.3809 63.519 72.3976 64.8309 72.3868 66.1417C72.3833 66.5162 72.4846 66.8287 72.7172 67.1292C73.9111 68.6785 74.5086 70.4354 74.5051 72.3937C74.5039 73.392 74.5086 74.3915 74.5039 75.3898C74.4991 76.2389 74.0101 76.8782 73.2694 77.0237C72.4846 77.1776 71.7977 76.7852 71.4554 75.9861C71.3969 75.8489 71.3444 75.7106 71.2848 75.5746C71.2407 75.4732 71.2288 75.2979 71.0701 75.3528C70.9354 75.3993 70.9962 75.5675 71.0117 75.6676C71.1787 76.6981 71.1822 77.7417 71.2621 78.7782C71.2944 79.1896 71.4208 79.5176 71.7142 79.8063C72.3093 80.3919 72.8925 80.9894 73.4722 81.5893C74.2379 82.3825 74.2522 83.4952 73.5151 84.2251C72.7828 84.9491 71.6605 84.9252 70.8769 84.1548C70.1446 83.4332 69.4135 82.7104 68.6979 81.971C67.3871 80.6173 66.6989 78.9976 66.6978 77.1036C66.6942 72.0801 66.7001 67.0577 66.687 62.0341C66.6858 61.6703 66.8492 61.4342 67.0699 61.1992C67.2488 61.1992 67.4277 61.1992 67.6066 61.1992C67.8356 61.3829 68.024 61.5928 68.061 61.9005C68.0538 61.959 68.0395 62.0186 68.0395 62.077C68.0395 67.1412 68.0312 72.2041 68.0479 77.2682C68.0526 78.6827 68.5953 79.9088 69.5673 80.9298C70.2853 81.6847 71.0379 82.4075 71.7702 83.1493C72.0207 83.4034 72.2962 83.537 72.5777 83.2448C72.8436 82.9681 72.6969 82.7045 72.462 82.4695C71.8621 81.8684 71.2717 81.2589 70.6718 80.659C70.2555 80.2428 69.9931 79.7466 69.9502 79.1634C69.7856 76.951 69.6341 74.7385 69.4898 72.5249C69.4505 71.9202 69.7367 71.5386 70.2496 71.4336C70.6992 71.3418 71.0964 71.5863 71.3206 72.1075C71.5663 72.68 71.8048 73.256 72.0469 73.8309C72.2568 74.3545 72.4656 74.8793 72.6755 75.4029C72.7363 75.5555 72.7816 75.7392 73.0035 75.6855C73.2014 75.6378 73.1633 75.4601 73.1645 75.3158C73.1669 74.3772 73.1573 73.4385 73.1681 72.4999C73.1859 70.7669 72.6612 69.22 71.5937 67.8603C71.2168 67.3809 71.0463 66.8478 71.0475 66.2466C71.051 65.085 71.0522 63.9221 71.0451 62.7604C71.0427 62.4503 71.0952 62.1367 71.0057 61.8301C71.0821 61.5678 71.2741 61.3889 71.4566 61.2028C71.6307 61.2004 71.8096 61.2004 71.9885 61.2004Z" fill="#262626"/>
<path fill-rule="evenodd" clip-rule="evenodd" d="M108.927 61.2006C109.229 61.4737 109.311 61.8064 109.31 62.2143C109.297 67.0864 109.286 71.9574 109.309 76.8295C109.318 78.9429 108.593 80.7188 107.089 82.1918C106.44 82.8275 105.807 83.4799 105.16 84.118C104.347 84.9182 103.233 84.9636 102.489 84.2336C101.723 83.4834 101.758 82.3754 102.576 81.5382C103.149 80.9526 103.722 80.367 104.3 79.7861C104.493 79.5917 104.68 79.383 104.697 79.1063C104.772 77.8635 104.934 76.6231 104.913 75.2754C104.675 75.5318 104.635 75.7811 104.539 75.997C104.193 76.7865 103.499 77.1813 102.717 77.0227C101.979 76.8736 101.48 76.2319 101.494 75.3827C101.518 73.9694 101.393 72.5513 101.579 71.1428C101.774 69.665 102.34 68.3364 103.252 67.1628C103.506 66.8372 103.613 66.5008 103.608 66.0953C103.595 64.7989 103.614 63.5024 103.597 62.2072C103.591 61.7993 103.668 61.4546 104.006 61.2018C104.185 61.2018 104.364 61.2018 104.543 61.2018C104.764 61.395 104.935 61.6168 104.951 61.9257C104.951 63.2949 104.934 64.6653 104.957 66.0345C104.969 66.7835 104.776 67.4323 104.297 68.0155C103.794 68.631 103.453 69.3394 103.198 70.092C102.602 71.8476 102.908 73.6629 102.836 75.4531C102.831 75.5652 102.872 75.6606 102.995 75.6893C103.136 75.7227 103.225 75.6475 103.275 75.5283C103.403 75.2277 103.523 74.9236 103.647 74.6218C104.007 73.7428 104.358 72.859 104.734 71.986C104.919 71.5566 105.336 71.3503 105.748 71.435C106.201 71.528 106.5 71.8775 106.51 72.3486C106.514 72.5716 106.495 72.7946 106.48 73.0177C106.343 74.9629 106.19 76.9058 106.073 78.8523C106.028 79.606 105.774 80.231 105.235 80.7582C104.649 81.3307 104.081 81.9198 103.508 82.5043C103.275 82.7416 103.152 82.9909 103.456 83.2676C103.733 83.524 103.97 83.4059 104.191 83.1853C104.857 82.5221 105.513 81.8507 106.184 81.1935C107.386 80.0163 107.973 78.597 107.962 76.9082C107.946 74.0016 107.959 71.0951 107.958 68.1885C107.956 66.0727 107.949 63.9557 107.946 61.8398C107.996 61.5584 108.184 61.3747 108.392 61.2029C108.569 61.2006 108.748 61.2006 108.927 61.2006Z" fill="#262626"/>
<path fill-rule="evenodd" clip-rule="evenodd" d="M68.0613 61.9019C68.0232 61.5941 67.8347 61.3842 67.6069 61.2006C68.8891 61.2006 70.1712 61.2006 71.4533 61.2006C71.2709 61.3866 71.0788 61.5655 71.0025 61.8279C70.6745 61.8673 70.3394 61.8005 70.0162 61.8983C69.3638 61.8995 68.7125 61.9007 68.0613 61.9019Z" fill="#FDFDFD"/>
<path fill-rule="evenodd" clip-rule="evenodd" d="M104.952 61.9245C104.938 61.6156 104.766 61.3938 104.544 61.2006C105.827 61.2006 107.109 61.2006 108.391 61.2006C108.184 61.3723 107.995 61.556 107.945 61.8375C107.587 61.8768 107.22 61.7719 106.868 61.909C106.23 61.9138 105.592 61.9186 104.952 61.9245Z" fill="#FDFDFD"/>
<path fill-rule="evenodd" clip-rule="evenodd" d="M78.4292 106.994C78.6427 106.799 78.8264 106.587 78.8574 106.283C79.2879 106.283 79.7197 106.283 80.1502 106.283C80.1789 106.588 80.3637 106.799 80.576 106.995C79.8592 106.994 79.1448 106.994 78.4292 106.994Z" fill="#FDFDFD"/>
<path fill-rule="evenodd" clip-rule="evenodd" d="M99.4464 105.638C97.8828 105.642 96.318 105.649 94.7543 105.651C91.6856 105.653 88.6156 105.646 85.5468 105.659C85.195 105.66 85.071 105.618 85.1044 105.214C85.3763 101.877 86.4819 98.7999 88.0753 95.8969C89.4278 93.4317 91.1012 91.1608 92.6027 88.7862C92.8806 88.3461 93.1895 87.9239 93.446 87.4718C93.632 87.1438 93.8825 86.9637 94.2475 86.922C94.3023 86.99 94.3453 87.0759 94.4144 87.1212C95.9196 88.1087 97.1206 89.3813 98.0175 90.9413C98.8441 92.3785 99.4034 93.923 99.4309 95.5785C99.4857 98.9311 99.4464 102.285 99.4464 105.638Z" fill="#49BFBF"/>
<path fill-rule="evenodd" clip-rule="evenodd" d="M80.1494 106.283C79.7188 106.283 79.2882 106.283 78.8565 106.283C78.7289 105.806 78.4176 105.634 77.9286 105.645C76.8707 105.667 75.8128 105.645 74.7549 105.657C74.4793 105.66 74.347 105.596 74.3493 105.289C74.3804 102.086 74.1788 98.8727 74.4245 95.6811C74.7477 91.4757 77.0007 88.5262 80.8363 86.7861C81.2156 86.6131 82.2103 86.965 82.4512 87.3359C83.0368 88.2328 83.626 89.1273 84.2009 90.0313C84.4573 90.4357 84.7817 90.5585 85.223 90.3736C85.4675 90.7326 85.712 91.0904 85.9565 91.4494C85.5689 91.8943 85.551 92.1006 85.8695 92.5956C86.2487 93.1836 86.6209 93.7764 87.0204 94.35C87.1802 94.5802 87.1635 94.7424 87.0299 94.9834C85.6095 97.5488 84.5456 100.249 84.016 103.144C83.8848 103.862 83.7835 104.586 83.7715 105.317C83.7668 105.584 83.6773 105.667 83.4018 105.66C82.6278 105.639 81.8513 105.672 81.0773 105.646C80.5883 105.629 80.277 105.805 80.1494 106.283Z" fill="#49BFBF"/>
<path fill-rule="evenodd" clip-rule="evenodd" d="M87.1884 87.2451C85.7608 86.7859 84.3332 86.3292 82.9067 85.8676C82.3271 85.6803 81.7474 85.4919 81.1737 85.2903C80.1707 84.9385 79.5732 84.2265 79.56 83.1638C79.5255 80.5124 79.5493 77.8611 79.5386 75.2098C79.5374 74.8818 79.727 74.9021 79.9429 74.8997C81.398 74.8818 82.8185 74.6635 84.1841 74.1519C85.3708 73.707 86.412 73.0307 87.2958 72.1171C87.6405 71.7617 87.8778 71.745 88.1438 72.1028C89.2053 73.5329 90.72 74.1531 92.379 74.5359C93.091 74.6993 93.8186 74.7494 94.5354 74.8687C94.533 77.3983 94.4853 79.9292 94.5461 82.4577C94.5795 83.846 93.5788 85.0625 92.3814 85.4382C90.782 85.9403 89.1969 86.4914 87.6059 87.0221C87.4544 87.0698 87.2839 87.0865 87.1884 87.2451ZM88.0138 84.5628C88.7139 84.5866 89.3901 84.4268 90.0437 84.168C90.4898 83.9915 90.6627 83.6349 90.5077 83.2556C90.3634 82.9014 90.0044 82.7535 89.5798 82.9157C88.5195 83.3236 87.4687 83.3212 86.4096 82.9121C85.9838 82.7475 85.632 82.9014 85.4901 83.2663C85.3398 83.6516 85.5175 83.9975 85.9659 84.1728C86.6195 84.4256 87.2946 84.5878 88.0138 84.5628ZM91.6336 80.163C91.9365 80.1749 92.3003 80.0962 92.6366 79.9316C92.9765 79.7646 93.1018 79.4605 92.9718 79.1098C92.8441 78.7664 92.5603 78.5803 92.1929 78.6972C91.7934 78.8236 91.4201 78.8331 91.0193 78.7043C90.6496 78.5863 90.3276 78.7747 90.2107 79.1301C90.0879 79.5034 90.2393 79.7777 90.5685 79.94C90.875 80.0902 91.2114 80.1618 91.6336 80.163ZM84.3606 80.1606C84.7244 80.1797 85.0714 80.095 85.4006 79.9578C85.7584 79.8099 85.9063 79.4557 85.7847 79.1194C85.6582 78.7723 85.3398 78.5886 84.9689 78.7067C84.5836 78.8284 84.2234 78.8272 83.8382 78.7067C83.472 78.591 83.1297 78.7831 83.0152 79.117C82.8996 79.451 83.0558 79.8088 83.4088 79.9578C83.7106 80.0843 84.0278 80.1654 84.3606 80.1606Z" fill="#F5CDA7"/>
<path fill-rule="evenodd" clip-rule="evenodd" d="M97.3 73.5567C95.6017 73.5723 93.9069 73.5508 92.2478 73.1095C91.011 72.7803 89.9269 72.2412 89.1266 71.1785C88.4861 70.327 87.2553 70.2232 86.523 70.9925C84.691 72.9187 82.3736 73.4983 79.8416 73.552C79.5589 73.5579 79.275 73.5472 78.9924 73.5544C78.4759 73.5675 78.1945 73.8418 78.1813 74.3618C78.1694 74.8389 78.179 75.316 78.179 75.7918C78.179 76.4418 78.179 76.4407 77.4753 76.4287C77.2785 76.4251 77.0996 76.4562 77.0865 76.1496C76.972 73.4387 77.5623 70.9495 79.3311 68.8158C80.9293 66.8861 82.97 65.6672 85.4388 65.3559C87.5165 65.0935 89.6251 65.0386 91.6909 65.5908C91.7457 65.6051 91.7958 65.6397 91.8483 65.6648C91.8483 65.8616 92.0212 65.8818 92.1441 65.9534C93.858 66.9588 95.1866 68.3376 96.1479 70.0753C96.7502 71.1642 97.0794 72.3426 97.3 73.5567Z" fill="#D4AF37"/>
<path fill-rule="evenodd" clip-rule="evenodd" d="M99.4469 105.638C99.4469 102.284 99.4875 98.9299 99.4314 95.5785C99.404 93.923 98.8446 92.3785 98.0181 90.9413C97.1212 89.3813 95.919 88.1087 94.415 87.1212C94.3458 87.0758 94.3029 86.9888 94.248 86.922C94.6655 86.6584 95.0615 86.7073 95.4968 86.9256C99.4398 88.9018 101.517 92.0935 101.631 96.4933C101.706 99.3974 101.64 102.305 101.652 105.212C101.653 105.566 101.542 105.679 101.189 105.66C100.61 105.628 100.028 105.642 99.4469 105.638Z" fill="#49BFBF"/>
<path fill-rule="evenodd" clip-rule="evenodd" d="M87.188 87.2452C87.2834 87.0866 87.4551 87.0699 87.6078 87.0198C89.1989 86.489 90.7839 85.938 92.3833 85.4359C93.5796 85.0602 94.5802 83.8425 94.5468 82.4554C94.486 79.9269 94.5337 77.396 94.5361 74.8663C95.0716 74.8783 95.6071 74.9009 96.1426 74.8962C96.4038 74.8938 96.4671 75.0011 96.4659 75.242C96.4587 77.848 96.4766 80.4529 96.4527 83.0589C96.442 84.1871 95.8361 84.9576 94.7568 85.3166C92.7697 85.9786 90.7815 86.6345 88.7898 87.2833C88.2578 87.4575 87.7152 87.5076 87.188 87.2452Z" fill="#F5CDA7"/>
<path fill-rule="evenodd" clip-rule="evenodd" d="M85.9564 91.4494C85.7119 91.0904 85.4674 90.7326 85.2229 90.3736C85.589 89.9502 85.6057 89.7391 85.3135 89.2727C85.0165 88.8004 84.7184 88.3269 84.4202 87.8546L84.4106 87.8594C84.8818 87.8403 85.2837 88.0848 85.7166 88.21C86.511 88.439 87.2707 88.7968 88.1306 88.7587C88.95 88.7217 89.6775 88.371 90.4456 88.154C90.8225 88.0478 91.1732 87.8343 91.5834 87.8606L91.5739 87.8558C90.4337 89.6269 89.2923 91.3981 88.1545 93.1716C88.0018 93.4089 87.9207 93.3004 87.8181 93.137C87.5474 92.7112 87.2588 92.2962 87 91.8632C86.7531 91.4446 86.4251 91.2836 85.9564 91.4494Z" fill="#F5CDA7"/>
<path fill-rule="evenodd" clip-rule="evenodd" d="M97.2999 73.5568C97.0792 72.3427 96.7501 71.1643 96.1478 70.0766C95.1865 68.3388 93.8578 66.9601 92.1439 65.9546C92.0223 65.8831 91.8481 65.8628 91.8481 65.666C93.0921 65.9475 94.1763 66.5558 95.1614 67.3393C97.1949 68.9578 98.3972 71.0701 98.8003 73.6319C98.9303 74.4561 98.9172 75.291 98.9112 76.1246C98.9088 76.3668 98.8051 76.4407 98.5868 76.4228C98.5129 76.4169 98.4365 76.4121 98.3638 76.4228C97.9416 76.4872 97.7782 76.3286 97.8163 75.8897C97.8545 75.446 97.8032 74.9964 97.8306 74.5503C97.8569 74.0971 97.6899 73.7751 97.2999 73.5568Z" fill="#D4AF37"/>
<path fill-rule="evenodd" clip-rule="evenodd" d="M78.1921 79.3401C78.1921 79.7563 78.1801 80.1738 78.1968 80.59C78.2064 80.8369 78.1062 80.8894 77.882 80.8762C76.8539 80.8142 75.9761 79.7706 76.1013 78.7437C76.1609 78.2559 76.5247 77.8957 77.0411 77.8146C78.1563 77.6369 78.1921 77.6667 78.1921 78.7604C78.1933 78.9536 78.1933 79.1469 78.1921 79.3401Z" fill="#F5CDA7"/>
<path fill-rule="evenodd" clip-rule="evenodd" d="M97.8055 79.3436C97.8055 78.9274 97.8151 78.51 97.8019 78.0937C97.7948 77.8659 97.8699 77.761 98.1061 77.78C98.254 77.792 98.4043 77.78 98.5521 77.7824C99.6745 77.8003 100.198 78.5732 99.7723 79.6156C99.4717 80.3515 98.9052 80.7629 98.1168 80.8739C97.8962 80.9049 97.7888 80.844 97.7996 80.5936C97.8175 80.1773 97.8055 79.7599 97.8055 79.3436Z" fill="#F5CDA7"/>
<path fill-rule="evenodd" clip-rule="evenodd" d="M88.9832 63.8709C87.8441 63.9234 86.7016 63.816 85.4814 63.9783C86.1171 63.0372 86.921 62.5602 87.998 62.559C88.3391 62.9859 88.84 63.2937 88.9832 63.8709Z" fill="#49BFBF"/>
<path fill-rule="evenodd" clip-rule="evenodd" d="M88.9832 63.8709C88.8413 63.2937 88.3392 62.9859 87.998 62.559C89.0727 62.5566 89.8765 63.0337 90.5075 63.9568C89.9505 63.9246 89.4662 63.8972 88.9832 63.8709Z" fill="#49BFBF"/>
<path fill-rule="evenodd" clip-rule="evenodd" d="M84.4192 87.8546C84.4102 87.8451 84.3989 87.8355 84.391 87.8236C84.3888 87.82 84.3967 87.8093 84.4 87.8021C84.4034 87.8212 84.4068 87.8403 84.4102 87.8594L84.4192 87.8546Z" fill="#F5CDA7"/>
<path fill-rule="evenodd" clip-rule="evenodd" d="M91.5852 87.8594C91.5886 87.8403 91.592 87.8212 91.5953 87.8033C91.5987 87.8105 91.6066 87.8212 91.6044 87.8248C91.5965 87.8355 91.5852 87.8451 91.5762 87.8546L91.5852 87.8594Z" fill="#F5CDA7"/>
<path fill-rule="evenodd" clip-rule="evenodd" d="M68.0611 61.9018C68.7123 61.9006 69.3635 61.8994 70.0147 61.8994C70.0171 63.2233 70.0374 64.546 70.0135 65.8687C70.0016 66.5425 70.1149 67.1162 70.5574 67.6792C71.9791 69.4896 72.257 71.6078 72.0447 73.8298C71.8025 73.2549 71.5652 72.6789 71.3183 72.1064C71.0953 71.5864 70.6981 71.3407 70.2473 71.4325C69.7344 71.5375 69.4482 71.9191 69.4875 72.5238C69.6319 74.7374 69.7845 76.9511 69.9479 79.1623C69.9909 79.7455 70.2544 80.2417 70.6695 80.6579C71.2694 81.2578 71.8598 81.8685 72.4597 82.4684C72.6947 82.7034 72.8414 82.967 72.5754 83.2437C72.2939 83.5371 72.0184 83.4023 71.768 83.1482C71.0356 82.4064 70.2831 81.6836 69.5651 80.9287C68.593 79.9077 68.0504 78.6817 68.0456 77.2671C68.0289 72.203 68.0372 67.1401 68.0372 62.0759C68.0396 62.0187 68.0539 61.9602 68.0611 61.9018Z" fill="#F5CDA7"/>
<path fill-rule="evenodd" clip-rule="evenodd" d="M72.0448 73.8299C72.2583 71.6079 71.9804 69.4897 70.5575 67.6792C70.1151 67.1151 70.0006 66.5426 70.0137 65.8687C70.0375 64.546 70.0173 63.2222 70.0149 61.8995C70.3381 61.8017 70.6744 61.8685 71.0012 61.8291C71.0919 62.1356 71.0394 62.4493 71.0406 62.7594C71.0477 63.9211 71.0465 65.0839 71.043 66.2456C71.0406 66.8479 71.2123 67.3798 71.5892 67.8593C72.6567 69.219 73.1826 70.7659 73.1636 72.4988C73.154 73.4375 73.1624 74.3761 73.16 75.3148C73.16 75.4579 73.197 75.6368 72.999 75.6845C72.7771 75.737 72.7306 75.5545 72.671 75.4018C72.4635 74.877 72.2535 74.3535 72.0448 73.8299Z" fill="#F5CDA7"/>
<path fill-rule="evenodd" clip-rule="evenodd" d="M104.952 61.9245C105.591 61.9186 106.229 61.9138 106.869 61.9078C106.87 67.0292 106.865 72.1518 106.877 77.2732C106.879 78.188 106.653 79.03 106.267 79.8446C105.941 80.5375 105.471 81.1255 104.951 81.6813C104.456 82.2121 103.864 82.651 103.456 83.264C103.153 82.9885 103.275 82.738 103.508 82.5007C104.081 81.9163 104.649 81.3271 105.235 80.7546C105.774 80.2274 106.028 79.6025 106.073 78.8487C106.19 76.9022 106.343 74.9594 106.48 73.0141C106.495 72.7911 106.514 72.568 106.51 72.345C106.5 71.8739 106.201 71.5244 105.747 71.4314C105.337 71.3467 104.918 71.5531 104.734 71.9824C104.358 72.8555 104.007 73.7392 103.647 74.6183C103.523 74.92 103.401 75.2241 103.275 75.5247C103.225 75.644 103.135 75.7191 102.995 75.6857C102.872 75.6571 102.832 75.5617 102.836 75.4496C102.906 73.6593 102.602 71.8441 103.197 70.0884C103.453 69.3359 103.794 68.6274 104.297 68.012C104.774 67.4288 104.969 66.7799 104.957 66.0309C104.935 64.6641 104.952 63.2937 104.952 61.9245Z" fill="#F5CDA7"/>
<path fill-rule="evenodd" clip-rule="evenodd" d="M103.457 83.2652C103.864 82.6522 104.456 82.2121 104.951 81.6825C105.471 81.1267 105.94 80.5376 106.268 79.8458C106.653 79.0312 106.878 78.188 106.877 77.2744C106.864 72.153 106.87 67.0304 106.869 61.9091C107.221 61.7719 107.588 61.8768 107.946 61.8375C107.951 63.9545 107.957 66.0703 107.958 68.1861C107.96 71.0927 107.946 73.9993 107.962 76.9058C107.972 78.5935 107.386 80.0128 106.184 81.1911C105.513 81.8483 104.857 82.5198 104.191 83.1829C103.971 83.4024 103.733 83.5217 103.457 83.2652Z" fill="#F5CDA7"/>
<path fill-rule="evenodd" clip-rule="evenodd" d="M88.014 84.5629C87.2948 84.5879 86.6198 84.4257 85.9638 84.1717C85.5153 83.9975 85.3376 83.6505 85.4879 83.2652C85.631 82.9003 85.9817 82.7464 86.4075 82.911C87.4678 83.3201 88.5173 83.3225 89.5776 82.9146C90.0022 82.7512 90.3612 82.9003 90.5055 83.2545C90.6606 83.6338 90.4876 83.9916 90.0416 84.1669C89.3892 84.4269 88.7141 84.5867 88.014 84.5629Z" fill="#262626"/>
<path fill-rule="evenodd" clip-rule="evenodd" d="M91.6335 80.163C91.2113 80.1606 90.8749 80.0902 90.5672 79.9387C90.238 79.7765 90.0866 79.5022 90.2094 79.1289C90.3263 78.7747 90.6483 78.585 91.018 78.7031C91.4188 78.8319 91.7921 78.8224 92.1916 78.696C92.559 78.5791 92.8428 78.7651 92.9705 79.1086C93.1005 79.4593 92.9752 79.7646 92.6353 79.9304C92.3002 80.0962 91.9364 80.1749 91.6335 80.163Z" fill="#262626"/>
<path fill-rule="evenodd" clip-rule="evenodd" d="M84.3605 80.1619C84.0277 80.1654 83.7105 80.0855 83.4099 79.9579C83.0557 79.8088 82.9006 79.451 83.0163 79.1171C83.132 78.7831 83.4731 78.5911 83.8393 78.7068C84.2233 78.8284 84.5847 78.8296 84.9699 78.7068C85.3409 78.5887 85.6593 78.7724 85.7857 79.1195C85.9074 79.4558 85.7595 79.8088 85.4017 79.9579C85.0713 80.0939 84.7242 80.1797 84.3605 80.1619Z" fill="#262626"/>
<defs>
<filter id="filter0_d_107_601" x="0.445604" y="0.301887" width="175.109" height="175.109" filterUnits="userSpaceOnUse" color-interpolation-filters="sRGB">
<feFlood flood-opacity="0" result="BackgroundImageFix"/>
<feColorMatrix in="SourceAlpha" type="matrix" values="0 0 0 0 0 0 0 0 0 0 0 0 0 0 0 0 0 0 127 0" result="hardAlpha"/>
<feOffset dy="3.81771"/>
<feGaussianBlur stdDeviation="13.7438"/>
<feComposite in2="hardAlpha" operator="out"/>
<feColorMatrix type="matrix" values="0 0 0 0 0.761771 0 0 0 0 0.858333 0 0 0 0 0.858333 0 0 0 0.39 0"/>
<feBlend mode="normal" in2="BackgroundImageFix" result="effect1_dropShadow_107_601"/>
<feBlend mode="normal" in="SourceGraphic" in2="effect1_dropShadow_107_601" result="shape"/>
</filter>
</defs>
</svg>
