<?xml version="1.0" encoding="UTF-8" standalone="no"?><svg width="176" height="176" viewBox="0 0 176 176" fill="none" xmlns="http://www.w3.org/2000/svg">
<rect x="87.9043" y="22.0264" width="98.4969" height="98.4969" rx="24.0516" transform="rotate(45 87.9043 22.0264)" stroke="#49BFBF" stroke-width="0.763542"/>
<g filter="url(#filter0_d_107_563)">
<rect x="87.9043" y="13.8511" width="99.2604" height="99.2604" rx="24.4333" transform="rotate(45 87.9043 13.8511)" fill="white"/>
</g>
<path fill-rule="evenodd" clip-rule="evenodd" d="M91.138 94.7239C90.3937 98.5114 90.7825 102.114 92.6062 105.507C92.6862 105.655 92.7744 105.798 92.8388 105.953C93.0571 106.47 92.7685 106.963 92.2222 107.012C92.0743 107.026 91.924 107.017 91.7749 107.017C89.3751 107.017 86.9753 107.018 84.5742 107.017C83.7882 107.017 83.5222 106.666 83.6952 105.888C84.0888 104.122 84.6136 102.386 84.9106 100.598C85.1336 99.2546 85.1253 97.9099 84.8533 96.5319C83.8156 97.073 82.7505 97.4021 81.6162 97.3972C78.8442 97.3848 76.7259 96.1474 75.2875 93.6984C75.1264 93.4248 75.0012 93.3669 74.703 93.4482C71.4933 94.3319 68.1059 92.7888 66.5625 89.7581C65.0131 86.7174 65.6894 82.9669 68.2132 80.7336C68.5329 80.4514 68.5162 80.3417 68.2132 80.0533C65.9923 77.9457 65.1884 75.3475 66.0639 72.3599C66.9358 69.3809 68.9682 67.611 71.9633 67.1944C72.7815 67.0811 73.0797 66.805 73.3659 66.0125C74.4096 63.1284 76.5088 61.4756 79.4669 61.2155C82.2758 60.969 84.5027 62.1794 86.0735 64.6111C86.2477 64.8798 86.3133 64.9303 86.5673 64.69C88.4042 62.9509 90.5523 62.3112 93.0034 62.8277C93.2384 62.877 93.4078 62.8375 93.6094 62.6822C98.0512 59.2731 104.256 61.9538 105.012 67.6086C105.056 67.9377 105.178 68.1373 105.458 68.3259C108.233 70.1858 109.372 73.8093 108.206 77.0546C108.099 77.3553 108.128 77.5365 108.334 77.7793C111.789 81.8577 109.906 88.3099 104.842 89.7199C104.42 89.8369 104.341 89.991 104.354 90.4199C104.473 94.1803 102.061 97.3553 98.4829 97.9974C95.606 98.5138 93.2479 97.4674 91.4469 95.0924C91.3646 94.9839 91.293 94.8656 91.2155 94.7534C91.2095 94.746 91.1904 94.7448 91.138 94.7239ZM89.4466 100.364C89.3131 98.8602 89.3238 97.3651 89.5075 95.8602C89.8713 92.8763 90.5416 89.9737 91.5459 87.1538C91.8465 86.3095 91.8572 86.3366 90.965 86.3033C90.5714 86.2885 90.3364 86.4118 90.1432 86.7643C89.8939 87.2179 89.5814 87.6332 89.3107 88.0744C89.1294 88.3702 88.9016 88.5687 88.5461 88.5255C88.1704 88.4787 87.9951 88.215 87.8925 87.8612C87.7684 87.4348 87.5979 87.0219 87.4858 86.593C87.376 86.1727 87.0683 86.3255 86.8309 86.3267C86.5244 86.328 86.6532 86.5917 86.6628 86.7458C86.6842 87.0662 86.7415 87.3842 86.7856 87.7035C86.9204 88.6426 87.0647 89.5818 87.184 90.5247C87.2639 91.1496 86.9645 91.4774 86.3491 91.4885C86.1558 91.4922 85.9626 91.4984 85.7694 91.5021C84.053 91.5403 83.1787 90.4421 82.9366 89.2885C82.778 88.5292 82.7791 88.5292 82.0158 88.5305C81.9418 88.5305 81.8655 88.5391 81.7927 88.5292C81.5268 88.4947 81.4671 88.6315 81.4707 88.8805C81.4826 89.5424 81.4719 90.2042 81.4743 90.8661C81.4755 91.3788 81.5673 91.4602 82.079 91.4873C83.8085 91.5822 85.068 92.4536 85.699 94.1014C86.5196 96.2435 86.6818 98.4855 86.3383 100.764C86.1189 102.224 85.6978 103.635 85.3603 105.066C85.2696 105.452 85.3579 105.545 85.7288 105.542C87.3522 105.526 88.9767 105.535 90.6012 105.532C90.7098 105.532 90.8386 105.585 90.9459 105.436C90.5666 104.614 90.2398 103.759 89.9858 102.876C89.746 102.052 89.6124 101.204 89.4466 100.364ZM71.547 68.761C69.1018 69.307 67.1922 71.6882 67.1791 74.3097C67.1672 76.6071 68.113 78.398 70.0453 79.5898C70.879 80.1038 70.885 80.704 70.0453 81.202C69.3893 81.589 68.8418 82.0931 68.3695 82.7007C66.5124 85.093 66.8917 88.8756 69.1865 90.7983C70.9423 92.2699 72.8769 92.6052 74.9988 91.7991C75.662 91.5477 75.9494 91.6709 76.2011 92.3007C77.4821 95.4979 81.132 96.8462 84.1103 95.2353C84.4108 95.0727 84.4788 94.9174 84.3488 94.5895C83.9671 93.6281 83.0296 92.9909 81.9072 92.9675C80.7944 92.9453 80.0454 92.1836 80.0406 91.0584C80.0358 90.0884 80.0406 89.1184 80.0406 88.1496C80.0406 87.2721 80.1968 87.0958 81.0282 87.0342C81.5196 87.0404 82.011 87.049 82.5024 87.0527C83.5819 87.0601 84.257 87.7096 84.3357 88.8201C84.3631 89.2047 84.4848 89.5411 84.8116 89.7642C85.0251 89.9109 85.2887 90.0958 85.5082 89.9639C85.7336 89.8283 85.5833 89.5165 85.5523 89.2872C85.3949 88.1164 85.2148 86.9479 85.0645 85.777C84.9869 85.1743 85.2863 84.8416 85.8755 84.8354C86.5304 84.828 87.1864 84.8379 87.8412 84.8329C88.236 84.8292 88.4853 85.024 88.6165 85.3999C88.6881 85.6057 88.7143 85.8325 88.8837 86.0556C89.0423 85.8103 89.1878 85.6156 89.3011 85.4036C89.5266 84.9808 89.8486 84.8046 90.3245 84.8243C91.0974 84.8551 91.8739 84.8317 92.648 84.8329C93.539 84.8342 93.8085 85.2446 93.4877 86.0889C93.2873 86.6176 93.1012 87.1513 92.9092 87.6825C92.3856 89.0222 92.0099 90.4101 91.6771 91.8102C91.5769 92.2329 91.3574 92.6927 91.9001 92.9983C91.955 93.0291 91.9789 93.1265 92.0099 93.1955C93.0082 95.5065 95.4975 96.9522 98.0798 96.5923C100.741 96.2214 103.03 93.5369 102.925 90.7441C102.97 90.309 102.871 89.8887 102.796 89.466C102.708 88.9656 102.919 88.6266 103.399 88.5157C103.617 88.4652 103.842 88.4578 104.059 88.4035C106.287 87.8563 107.807 86.4771 108.431 84.1933C109.044 81.9464 108.462 79.9731 106.872 78.3203C106.387 77.8175 106.359 77.6942 106.649 77.0718C106.988 76.3422 107.213 75.5731 107.225 74.767C107.26 72.3464 106.287 70.4902 104.228 69.2885C103.835 69.058 103.639 68.7708 103.645 68.2963C103.649 67.9783 103.59 67.6529 103.521 67.3399C102.538 62.9152 97.6301 61.1946 94.2296 64.091C93.8467 64.4176 93.4996 64.5076 93.0118 64.3621C91.4111 63.8864 89.8915 64.1366 88.4698 65.0289C87.7839 65.4591 87.2353 66.031 86.7713 66.7051C86.3443 67.3263 85.7252 67.2462 85.4175 66.5523C85.3555 66.413 85.3018 66.2688 85.2434 66.1271C84.2033 63.6263 81.3991 62.1683 78.8335 62.7931C76.4146 63.3823 74.7865 65.1978 74.3953 67.7442C74.2915 68.4183 74.0744 68.6044 73.4053 68.5761C72.7755 68.5514 72.1529 68.5625 71.547 68.761Z" fill="#262626"/>
<path fill-rule="evenodd" clip-rule="evenodd" d="M92.9092 87.6825C93.1012 87.1513 93.2873 86.6164 93.4877 86.0889C93.8085 85.2446 93.539 84.8342 92.648 84.8329C91.8739 84.8317 91.0974 84.8551 90.3245 84.8243C89.8486 84.8046 89.5266 84.9808 89.3011 85.4036C89.1878 85.6156 89.0423 85.8103 88.8837 86.0556C88.7143 85.8325 88.6881 85.6045 88.6165 85.3999C88.4853 85.0227 88.2372 84.8292 87.8412 84.8329C87.1864 84.8379 86.5304 84.8292 85.8755 84.8354C85.2863 84.8416 84.9869 85.1743 85.0645 85.777C85.2159 86.9492 85.3949 88.1164 85.5523 89.2872C85.5833 89.5165 85.7348 89.8283 85.5082 89.9639C85.2887 90.0958 85.0251 89.9109 84.8116 89.7642C84.4848 89.5399 84.3631 89.2047 84.3357 88.8201C84.2558 87.7096 83.5807 87.0589 82.5024 87.0527C82.011 87.049 81.5196 87.0404 81.0282 87.0342C80.8612 86.646 80.7043 86.2529 80.523 85.8708C80.4515 85.7192 80.3215 85.8116 80.2105 85.8548C79.1669 86.2566 78.1065 86.4143 76.9889 86.2332C74.7525 85.872 73.1196 84.6371 72.1213 82.5775C71.1575 80.5907 71.2136 78.5447 72.2 76.5703C72.6843 75.6003 73.3427 74.7498 74.3016 74.2075C74.3064 75.2379 74.3112 76.2683 74.3148 77.2987C74.3159 77.6216 74.3374 77.9408 74.3935 78.2613C74.7597 80.3307 76.55 81.875 78.6027 81.8762C80.6578 81.8787 82.4732 80.3381 82.8143 78.2724C83.0159 77.0522 82.8728 75.8172 82.8978 74.5884C82.9145 73.7737 82.5185 73.24 81.7647 73.0391C81.5619 72.9849 81.4868 72.9122 81.4355 72.7002C81.2673 72.01 80.7807 71.5428 80.1604 71.5354C78.4488 71.512 76.736 71.5194 75.0244 71.5293C74.5998 71.5318 74.3398 71.8226 74.3183 72.2626C74.3016 72.6003 74.3064 72.9393 74.3016 73.277C72.6914 72.222 71.8112 70.6899 71.544 68.7598C72.1499 68.5614 72.7725 68.5515 73.3999 68.5774C74.069 68.6058 74.2861 68.4197 74.3899 67.7455C74.7823 65.1991 76.4092 63.3836 78.8281 62.7945C81.3949 62.1696 84.1979 63.6276 85.238 66.1284C85.2964 66.2702 85.3501 66.4131 85.4121 66.5536C85.7199 67.2488 86.3389 67.3289 86.7659 66.7065C87.2299 66.0323 87.7798 65.4604 88.4644 65.0302C89.8862 64.1379 91.4057 63.8865 93.0064 64.3635C93.4942 64.5089 93.8413 64.4189 94.2242 64.0923C97.6236 61.1959 102.532 62.9165 103.516 67.3412C103.585 67.6543 103.643 67.9796 103.64 68.2976C103.634 68.7722 103.829 69.0606 104.223 69.2898C106.282 70.4915 107.255 72.3477 107.219 74.7683C107.207 75.5744 106.984 76.3447 106.643 77.0731C106.353 77.6955 106.382 77.8188 106.866 78.3217C108.461 79.9745 109.043 81.9477 108.429 84.1946C107.805 86.4784 106.285 87.8576 104.057 88.4049C103.841 88.4578 103.615 88.4665 103.398 88.517C102.916 88.6292 102.705 88.9681 102.794 89.4673C102.869 89.89 102.968 90.3103 102.923 90.7454C102.012 90.8009 101.117 90.7023 100.245 90.4188C98.5563 89.8703 97.3492 88.7265 96.5036 87.1477C96.3855 86.9271 96.3235 86.7471 95.9788 86.8322C95.0949 87.0503 94.26 87.4114 93.3929 87.6727C93.2438 87.7183 93.0726 87.9031 92.9092 87.6825ZM92.9241 76.6701C92.9456 77.1902 92.9003 77.7103 92.9945 78.2329C93.375 80.3418 95.151 81.8799 97.2311 81.8762C99.2863 81.8713 101.061 80.3307 101.432 78.2477C101.566 77.4971 101.506 76.7428 101.504 75.9922C101.499 74.4368 100.858 73.2043 99.6322 72.307C99.4115 72.1455 99.3328 71.9927 99.3483 71.7092C99.4234 70.3239 98.5062 69.2947 97.2228 69.2923C95.937 69.2898 95.0055 70.3177 95.0842 71.6957C95.1021 72.005 95.0102 72.164 94.7753 72.328C94.1574 72.7556 93.6934 73.3275 93.3607 74.019C92.9539 74.8583 92.8752 75.7519 92.9241 76.6701ZM91.494 77.6142C91.4916 76.5197 91.2686 75.6545 90.8165 74.8521C89.5104 72.5338 86.7826 72.3686 85.232 74.5132C83.9713 76.2572 84.0488 78.9429 85.4086 80.6092C86.7337 82.2324 88.8473 82.3113 90.2655 80.7719C91.1171 79.8463 91.4666 78.7074 91.494 77.6142Z" fill="#49BFBF"/>
<path fill-rule="evenodd" clip-rule="evenodd" d="M74.3045 74.2063C73.3455 74.7473 72.6871 75.599 72.2029 76.569C71.2165 78.5435 71.1604 80.5894 72.1241 82.5763C73.1225 84.6345 74.7554 85.8695 76.9918 86.2319C78.1094 86.4131 79.1709 86.2553 80.2134 85.8535C80.3243 85.8104 80.4543 85.7192 80.5259 85.8695C80.7072 86.2504 80.8635 86.6448 81.0304 87.033C80.1991 87.0946 80.0428 87.2697 80.0428 88.1484C80.0428 89.1184 80.0381 90.0884 80.0428 91.0572C80.0476 92.1825 80.7967 92.9441 81.9095 92.9663C83.0319 92.9885 83.9694 93.627 84.3511 94.5883C84.4811 94.9162 84.4131 95.0715 84.1125 95.2342C81.1342 96.8451 77.4856 95.4979 76.2034 92.2995C75.9505 91.6697 75.663 91.5465 75.0011 91.7979C72.8792 92.604 70.9445 92.2687 69.1888 90.7971C66.8939 88.8744 66.5134 85.093 68.3717 82.6995C68.8429 82.0919 69.3915 81.5878 70.0476 81.2008C70.8885 80.7041 70.8813 80.1026 70.0476 79.5886C68.1141 78.3968 67.1694 76.606 67.1814 74.3086C67.1945 71.687 69.1041 69.3058 71.5492 68.7598C71.8164 70.6899 72.6979 72.2219 74.3069 73.2769C74.3045 73.5875 74.3045 73.8969 74.3045 74.2063Z" fill="#49BFBF"/>
<path fill-rule="evenodd" clip-rule="evenodd" d="M92.9092 87.6825C93.0726 87.9031 93.2425 87.7183 93.3916 87.6727C94.2588 87.4101 95.0949 87.0502 95.9775 86.8321C96.3222 86.747 96.3843 86.9282 96.5023 87.1476C97.348 88.7265 98.5551 89.869 100.244 90.4187C101.116 90.7022 102.01 90.8008 102.922 90.7453C103.027 93.5382 100.738 96.2226 98.0768 96.5936C95.4957 96.9535 93.0052 95.5077 92.0068 93.1968C91.977 93.1265 91.9532 93.0304 91.8971 92.9996C91.3544 92.6939 91.5739 92.2342 91.6741 91.8114C92.0104 90.4113 92.3868 89.0235 92.9092 87.6825Z" fill="#49BFBF"/>
<path fill-rule="evenodd" clip-rule="evenodd" d="M85.7691 91.5034C85.9623 91.4984 86.1556 91.4935 86.3488 91.4898C86.9642 91.4787 87.2636 91.1509 87.1837 90.526C87.0644 89.5819 86.9201 88.6427 86.7877 87.7011C86.7424 87.3818 86.6863 87.0639 86.6649 86.7434C86.6541 86.5906 86.5265 86.3268 86.833 86.3244C87.0704 86.3231 87.3781 86.1703 87.4879 86.5906C87.6 87.0195 87.7705 87.4324 87.8946 87.8588C87.9972 88.2126 88.1725 88.4763 88.5482 88.5232C88.9025 88.5675 89.1303 88.3691 89.3128 88.0721C89.5835 87.6308 89.896 87.2155 90.1453 86.7619C90.3385 86.4094 90.5735 86.2861 90.9671 86.3009C91.8593 86.3342 91.8486 86.3071 91.548 87.1514C90.5437 89.9714 89.8734 92.8739 89.5096 95.8578C89.3259 97.3627 89.3152 98.859 89.4487 100.361C88.9406 100.217 88.7319 99.7205 88.454 99.3557C86.6959 97.0632 85.7763 94.4454 85.7691 91.5034Z" fill="#D4AF37"/>
<path fill-rule="evenodd" clip-rule="evenodd" d="M85.7691 91.5034C85.7763 94.4454 86.6971 97.0632 88.4516 99.3582C88.7307 99.723 88.9385 100.22 89.4466 100.364C89.6124 101.204 89.7445 102.052 89.9831 102.878C90.2371 103.762 90.564 104.616 90.9433 105.438C90.8359 105.587 90.7071 105.534 90.5986 105.534C88.974 105.538 87.3507 105.528 85.7262 105.544C85.354 105.548 85.2669 105.454 85.3576 105.068C85.6951 103.637 86.1162 102.226 86.3356 100.767C86.6792 98.488 86.5169 96.2449 85.6963 94.104C85.0666 92.4549 83.807 91.5835 82.0775 91.4886C81.567 91.4602 81.4752 91.3801 81.4728 90.8674C81.4704 90.2055 81.4811 89.5437 81.4692 88.8818C81.4644 88.6329 81.5253 88.496 81.7913 88.5306C81.864 88.5404 81.9403 88.5318 82.0143 88.5318C82.7777 88.5306 82.7765 88.5318 82.9351 89.2898C83.1772 90.4434 84.0515 91.5416 85.7691 91.5034Z" fill="#D4AF37"/>
<path fill-rule="evenodd" clip-rule="evenodd" d="M92.9241 76.6701C92.8752 75.7506 92.954 74.8582 93.3595 74.0164C93.6923 73.325 94.1575 72.7531 94.7741 72.3254C95.0091 72.1627 95.1009 72.0025 95.0831 71.6932C95.0043 70.3152 95.9347 69.2885 97.2217 69.2898C98.5051 69.2922 99.4235 70.3214 99.3471 71.7067C99.3316 71.9914 99.4116 72.1443 99.631 72.3045C100.857 73.2005 101.498 74.433 101.502 75.9897C101.505 76.7415 101.564 77.4946 101.431 78.2452C101.06 80.3281 99.2851 81.8688 97.23 81.8737C95.151 81.8799 93.375 80.3418 92.9945 78.2329C92.9003 77.7103 92.9456 77.1902 92.9241 76.6701ZM97.9898 75.069L97.9874 75.0702C98.2939 75.6249 98.7842 75.8849 99.3734 75.9515C100.142 76.0378 100.17 75.9922 99.9686 75.2206C99.5905 73.749 98.3273 72.8628 96.8591 73.0391C95.5077 73.256 94.5368 74.2555 94.3686 75.5904C94.3364 75.843 94.3567 75.9687 94.6692 75.9712C95.4779 75.9786 96.1184 75.7013 96.537 74.9642C96.7314 74.6216 97.0225 74.4873 97.397 74.523C97.6188 74.6019 97.7703 74.7744 97.923 74.947C97.9445 74.9877 97.9671 75.0283 97.9898 75.069ZM97.2085 80.3959C98.6482 80.3984 99.8708 79.2842 100.063 77.8052C100.096 77.5476 100.072 77.412 99.7598 77.433C98.8772 77.4921 98.0864 77.2197 97.4065 76.6331C97.267 76.5123 97.1811 76.4963 97.0344 76.6257C96.3581 77.2197 95.5661 77.4847 94.6835 77.4342C94.3972 77.4169 94.3304 77.5094 94.365 77.7929C94.5427 79.2608 95.7725 80.3935 97.2085 80.3959ZM97.6821 71.5526C97.9445 71.6229 97.9612 71.4886 97.898 71.3098C97.7799 70.9721 97.5449 70.7786 97.1918 70.7885C96.8603 70.7983 96.6396 70.9894 96.5311 71.3098C96.469 71.4923 96.4869 71.6069 96.7279 71.5613C97.0511 71.5021 97.3779 71.5194 97.6821 71.5526Z" fill="#262626"/>
<path fill-rule="evenodd" clip-rule="evenodd" d="M74.3045 74.2063C74.3045 73.8969 74.3044 73.5876 74.3044 73.277C74.3092 72.9393 74.3032 72.6003 74.3199 72.2626C74.3426 71.8214 74.6014 71.5317 75.026 71.5293C76.7376 71.5182 78.4504 71.512 80.162 71.5354C80.7823 71.5441 81.2677 72.0112 81.4371 72.7002C81.4884 72.9109 81.5635 72.9849 81.7663 73.0391C82.5201 73.24 82.9161 73.7737 82.8994 74.5884C82.8744 75.816 83.0175 77.0522 82.8159 78.2724C82.4748 80.338 80.6606 81.8775 78.6043 81.8762C76.5528 81.8738 74.7612 80.3307 74.3951 78.2613C74.339 77.9408 74.3163 77.6228 74.3163 77.2987C74.314 76.2683 74.3081 75.2379 74.3045 74.2063ZM80.9063 75.2367C81.0101 75.445 81.1461 75.6878 81.3763 75.6545C81.5635 75.6274 81.4442 75.3735 81.4586 75.2194C81.5146 74.7856 81.5075 74.4639 80.9397 74.3505C80.4531 74.2544 80.162 73.7983 80.0702 73.2831C80.0273 73.0416 79.9259 72.996 79.7171 72.9997C78.8428 73.0132 77.9674 73.0132 77.0919 73.0182C76.7496 73.0132 76.4072 73.0219 76.0673 72.9997C75.8037 72.9824 75.7405 73.102 75.7453 73.3509C75.7572 74.104 75.756 74.8571 75.7453 75.6089C75.7417 75.8542 75.7954 75.9725 76.0637 75.9651C76.6434 75.9478 77.2243 75.986 77.8028 75.9515C78.4802 75.9109 79.0265 75.6101 79.3378 74.9483C79.908 74.3246 80.3386 74.3702 80.7906 75.1011C80.8216 75.1504 80.867 75.1911 80.9063 75.2367ZM77.1849 77.4392C76.6959 77.4392 76.3679 77.454 76.0411 77.4342C75.8085 77.4207 75.7345 77.486 75.7548 77.7387C75.8693 79.2078 77.1682 80.4095 78.6425 80.396C80.1107 80.3824 81.3834 79.1511 81.4693 77.6721C81.4812 77.4675 81.4574 77.3295 81.2307 77.2691C80.8359 77.1631 80.5008 76.9338 80.1919 76.6627C80.1072 76.5887 80.0475 76.463 79.902 76.5949C79.073 77.348 78.0831 77.523 77.1849 77.4392Z" fill="#262626"/>
<path fill-rule="evenodd" clip-rule="evenodd" d="M91.494 77.6142C91.4666 78.7074 91.1183 79.8463 90.2655 80.7719C88.8473 82.3113 86.7337 82.2324 85.4086 80.6092C84.0488 78.9441 83.9701 76.2584 85.232 74.5132C86.7826 72.3674 89.5104 72.5338 90.8165 74.8521C91.2686 75.6545 91.4916 76.5197 91.494 77.6142ZM87.9519 77.4391C87.3114 77.4391 86.6709 77.4428 86.0304 77.4366C85.861 77.4354 85.7465 77.444 85.7692 77.677C85.8503 78.5471 86.1043 79.3347 86.7627 79.9251C87.4855 80.5721 88.4004 80.5561 89.1089 79.8881C89.7255 79.3051 89.97 78.5459 90.0571 77.7115C90.0822 77.4736 89.9891 77.4317 89.7852 77.4366C89.1733 77.4465 88.5626 77.4391 87.9519 77.4391ZM87.8732 75.9601C88.3944 75.9601 88.9156 75.9552 89.4381 75.9625C89.716 75.9662 89.7494 75.8578 89.6146 75.6322C89.215 74.9642 88.6687 74.4872 87.8875 74.4996C87.1289 74.5119 86.5957 74.9852 86.2081 75.6396C86.0638 75.8849 86.1437 75.965 86.3989 75.9613C86.8903 75.9552 87.3818 75.9601 87.8732 75.9601Z" fill="#262626"/>
<path fill-rule="evenodd" clip-rule="evenodd" d="M97.2085 80.3959C95.7725 80.3935 94.5429 79.2595 94.364 77.7916C94.3294 77.5081 94.395 77.4169 94.6825 77.433C95.5651 77.4847 96.3571 77.2185 97.0334 76.6244C97.1801 76.495 97.266 76.5123 97.4055 76.6318C98.0854 77.2185 98.8762 77.4897 99.7588 77.4317C100.07 77.4108 100.095 77.5451 100.062 77.804C99.8709 79.2842 98.6482 80.3984 97.2085 80.3959Z" fill="#FFF6D9"/>
<path fill-rule="evenodd" clip-rule="evenodd" d="M97.397 74.523C97.0225 74.4873 96.7314 74.6216 96.537 74.9642C96.1172 75.7013 95.4767 75.9786 94.6692 75.9712C94.3567 75.9687 94.3376 75.843 94.3686 75.5904C94.5368 74.2555 95.5077 73.256 96.8591 73.0391C96.7982 73.627 97.1048 74.0719 97.397 74.523Z" fill="#D4AF37"/>
<path fill-rule="evenodd" clip-rule="evenodd" d="M97.397 74.523C97.1048 74.0719 96.7964 73.627 96.8596 73.0379C98.3267 72.8604 99.5898 73.7466 99.9691 75.2194C99.3036 75.2478 98.6416 75.2206 97.9879 75.0691L97.9903 75.0678C97.9677 75.0271 97.945 74.9865 97.9212 74.947C97.7709 74.7745 97.6188 74.6019 97.397 74.523Z" fill="#D4AF37"/>
<path fill-rule="evenodd" clip-rule="evenodd" d="M97.9879 75.0691C98.6416 75.2194 99.3024 75.2465 99.9691 75.2194C100.171 75.991 100.142 76.0365 99.3736 75.9502C98.7844 75.8837 98.2945 75.6237 97.9879 75.0691Z" fill="#D4AF37"/>
<path fill-rule="evenodd" clip-rule="evenodd" d="M97.6821 71.5526C97.3779 71.5194 97.0511 71.5021 96.7279 71.5613C96.4857 71.6056 96.469 71.4923 96.5311 71.3098C96.6408 70.9894 96.8603 70.7983 97.1918 70.7885C97.5449 70.7786 97.7787 70.9709 97.898 71.3098C97.9612 71.4886 97.9457 71.6217 97.6821 71.5526Z" fill="#D4AF37"/>
<path fill-rule="evenodd" clip-rule="evenodd" d="M77.1849 77.4392C78.0831 77.5218 79.074 77.3467 79.9018 76.5936C80.0473 76.4618 80.1069 76.5875 80.1916 76.6614C80.5005 76.9326 80.8357 77.1618 81.2305 77.2678C81.4571 77.3282 81.481 77.4663 81.4691 77.6709C81.3844 79.1511 80.1105 80.3824 78.6422 80.3947C77.1668 80.4083 75.8691 79.2066 75.7534 77.7374C75.7331 77.486 75.8083 77.4194 76.0396 77.433C76.3665 77.4539 76.6959 77.4392 77.1849 77.4392Z" fill="#FFF6D9"/>
<path fill-rule="evenodd" clip-rule="evenodd" d="M79.3378 74.9483C79.0265 75.6101 78.4802 75.9109 77.8028 75.9515C77.2243 75.986 76.6434 75.9478 76.0637 75.9651C75.7954 75.9737 75.7417 75.8542 75.7453 75.6089C75.756 74.8558 75.7572 74.1028 75.7453 73.3509C75.7417 73.1007 75.8037 72.9824 76.0673 72.9997C76.4084 73.0219 76.7508 73.0132 77.0919 73.0182C77.5869 73.9771 78.3526 74.5982 79.3378 74.9483Z" fill="#FCE7A5"/>
<path fill-rule="evenodd" clip-rule="evenodd" d="M79.3378 74.9483C78.3526 74.5982 77.5869 73.977 77.0931 73.0169C77.9686 73.012 78.8429 73.012 79.7184 72.9984C79.9271 72.9947 80.0273 73.0403 80.0714 73.2819C80.1645 73.7971 80.4543 74.2519 80.941 74.3493C81.5087 74.4614 81.5159 74.7843 81.4598 75.2182C81.2749 75.2243 81.0912 75.2293 80.9064 75.2354C80.8682 75.1911 80.8217 75.1504 80.7907 75.0999C80.3386 74.3714 79.908 74.3259 79.3378 74.9483Z" fill="#FCE7A5"/>
<path fill-rule="evenodd" clip-rule="evenodd" d="M80.9063 75.2367C81.09 75.2305 81.2749 75.2256 81.4598 75.2194C81.4455 75.3735 81.5636 75.6274 81.3775 75.6545C81.1461 75.6878 81.0089 75.445 80.9063 75.2367Z" fill="#D4AF37"/>
<path fill-rule="evenodd" clip-rule="evenodd" d="M87.9519 77.4391C88.5626 77.4391 89.1744 77.4465 89.7851 77.4354C89.9891 77.4317 90.0821 77.4724 90.057 77.7103C89.97 78.5447 89.7255 79.3051 89.1088 79.8869C88.4003 80.5561 87.4855 80.5709 86.7627 79.9239C86.1043 79.3335 85.8502 78.5459 85.7691 77.6758C85.7476 77.4428 85.8609 77.4342 86.0303 77.4354C86.6696 77.4428 87.3114 77.4391 87.9519 77.4391Z" fill="#FFF6D9"/>
<path fill-rule="evenodd" clip-rule="evenodd" d="M87.8732 75.9601C87.3818 75.9601 86.8892 75.9553 86.3978 75.9626C86.1426 75.9663 86.0626 75.8862 86.207 75.641C86.5946 74.9865 87.1278 74.5132 87.8864 74.5009C88.6676 74.4873 89.2139 74.9655 89.6135 75.6336C89.7483 75.8591 89.7161 75.9676 89.437 75.9639C88.9169 75.9553 88.3944 75.9601 87.8732 75.9601Z" fill="#FCE7A5"/>
<defs>
<filter id="filter0_d_107_563" x="0.349901" y="0.301887" width="175.109" height="175.109" filterUnits="userSpaceOnUse" color-interpolation-filters="sRGB">
<feFlood flood-opacity="0" result="BackgroundImageFix"/>
<feColorMatrix in="SourceAlpha" type="matrix" values="0 0 0 0 0 0 0 0 0 0 0 0 0 0 0 0 0 0 127 0" result="hardAlpha"/>
<feOffset dy="3.81771"/>
<feGaussianBlur stdDeviation="13.7438"/>
<feComposite in2="hardAlpha" operator="out"/>
<feColorMatrix type="matrix" values="0 0 0 0 0.761771 0 0 0 0 0.858333 0 0 0 0 0.858333 0 0 0 0.39 0"/>
<feBlend mode="normal" in2="BackgroundImageFix" result="effect1_dropShadow_107_563"/>
<feBlend mode="normal" in="SourceGraphic" in2="effect1_dropShadow_107_563" result="shape"/>
</filter>
</defs>
</svg>
