<?xml version="1.0" encoding="UTF-8" standalone="no"?><svg viewBox="0 0 110 93" fill="none" xmlns="http://www.w3.org/2000/svg">
<path d="M5.10706 70.0024H7.22646V79.5973H13.1932V81.3871H5.10706V70.0024Z" fill="#D4AF37"/>
<path d="M27.2452 78.7524H21.5397L20.415 81.3871H18.2305L23.3658 70.0034H25.4522L30.604 81.3871H28.3865L27.2452 78.7524ZM26.5449 77.0935L24.3934 72.1168L22.2575 77.0935H26.5449Z" fill="#D4AF37"/>
<path d="M44.4118 81.3871L42.0806 78.0528C41.934 78.0693 41.7873 78.0693 41.6406 78.0693H39.0647V81.3871H36.9453V70.0034H41.6397C44.6391 70.0034 46.4972 71.5325 46.4972 74.0528C46.4972 75.7766 45.6172 77.045 44.0679 77.6468L46.6924 81.3871H44.4118ZM41.5425 71.7912H39.0647V76.329H41.5425C43.4006 76.329 44.3632 75.483 44.3632 74.0518C44.3632 72.6206 43.4006 71.7912 41.5425 71.7912Z" fill="#D4AF37"/>
<path d="M55.8723 70.0024H53.7529V81.3861H55.8723V70.0024Z" fill="#D4AF37"/>
<path d="M62.8828 80.1833L63.6161 78.5409C64.5292 79.2724 65.9793 79.7928 67.3819 79.7928C69.1584 79.7928 69.9083 79.1581 69.9083 78.3131C69.9083 75.8577 63.1266 77.4672 63.1266 73.2395C63.1266 71.4014 64.5943 69.8403 67.7238 69.8403C69.0934 69.8403 70.528 70.1979 71.5216 70.8491L70.8534 72.4915C69.8267 71.8897 68.7019 71.5971 67.7073 71.5971C65.9463 71.5971 65.2295 72.2802 65.2295 73.1417C65.2295 75.5651 71.9947 73.9876 71.9947 78.1668C71.9947 79.9885 70.5115 81.5496 67.3809 81.5496C65.6054 81.5486 63.8279 80.9963 62.8828 80.1833Z" fill="#D4AF37"/>
<path d="M78.0278 80.1833L78.7612 78.5409C79.6742 79.2724 81.1244 79.7928 82.5269 79.7928C84.3035 79.7928 85.0533 79.1581 85.0533 78.3131C85.0533 75.8577 78.2716 77.4672 78.2716 73.2395C78.2716 71.4014 79.7393 69.8403 82.8689 69.8403C84.2384 69.8403 85.673 70.1979 86.6667 70.8491L85.9984 72.4915C84.9717 71.8897 83.847 71.5971 82.8523 71.5971C81.0913 71.5971 80.3745 72.2802 80.3745 73.1417C80.3745 75.5651 87.1397 73.9876 87.1397 78.1668C87.1397 79.9885 85.6565 81.5496 82.526 81.5496C80.7494 81.5486 78.9729 80.9963 78.0278 80.1833Z" fill="#D4AF37"/>
<path d="M101.536 78.7524H95.8305L94.7057 81.3871H92.5212L97.6566 70.0034H99.7429L104.895 81.3871H102.678L101.536 78.7524ZM100.835 77.0935L98.6832 72.1168L96.5473 77.0935H100.835Z" fill="#D4AF37"/>
<path d="M83.3576 55.4091C81.4451 51.2967 76.9285 50.1524 75.0762 49.851C68.4752 48.7793 61.8674 52.2812 56.5572 55.0961L55.8958 55.4469C48.5128 59.3674 39.3242 64.2463 31.343 60.8694C29.955 60.2821 28.363 58.9885 28.058 57.1184C27.8463 55.817 28.1231 54.7996 28.905 54.006C30.8534 52.0273 35.4681 51.849 37.9178 52.2008C39.4185 52.4169 40.9716 52.7686 42.4752 53.1087C46.4478 54.0089 50.5565 54.9391 54.7273 53.7299C59.1904 52.4363 63.4584 48.2822 65.1057 43.6272C66.4073 39.9499 65.9838 36.2959 63.9149 33.3385C62.9766 31.9965 61.6896 30.9538 60.256 30.2833C60.7494 29.9848 61.2108 29.6263 61.6284 29.2087C62.9902 27.8511 63.741 26.0449 63.741 24.1244C63.742 20.1593 60.5085 16.9316 56.532 16.9307C54.4058 16.9307 52.4204 17.8425 51.0237 19.482C50.0582 20.6157 49.4696 22.0324 49.3482 23.5159C49.1733 25.6603 49.93 27.7068 51.4336 29.2068C51.8726 29.6447 52.3592 30.0188 52.8799 30.325C51.7318 30.9219 50.675 31.7939 49.8192 32.8705C48.1467 34.9742 47.3881 37.696 47.7912 40.1534C48.0816 41.9266 49.1024 43.4838 50.6633 44.538C52.266 45.6204 54.2329 46.0099 56.0589 45.6059C57.3566 45.3181 58.5445 44.6844 59.4041 43.821C60.5143 42.7047 61.1049 41.1059 60.9456 39.6485C60.8135 38.4363 60.1802 37.3152 59.2089 36.574C58.2376 35.8327 56.9875 35.5168 55.7802 35.7067C54.9934 35.8307 54.2989 36.1553 53.7735 36.6466C53.1683 37.2125 52.8206 37.979 52.8206 38.7522C52.8206 39.1195 52.907 39.4131 53.0848 39.6485C53.3801 40.039 53.9133 40.1795 54.3261 39.9761C54.8701 39.7077 54.8876 39.1214 54.8963 38.8065C54.8982 38.7542 54.8992 38.7028 54.9031 38.6534C54.9351 38.2435 55.3994 37.9247 55.8171 37.8026C56.3659 37.6418 56.9797 37.6863 57.4994 37.9247C58.019 38.1631 58.4532 38.5982 58.6883 39.1185C59.1448 40.1282 58.8233 41.509 57.9239 42.4024C56.1396 44.1727 52.978 44.1524 51.1567 42.3588C50.4642 41.6766 49.9795 40.7513 49.827 39.821C49.5162 37.9267 50.1174 35.8065 51.4355 34.1495C52.3719 32.9732 53.5928 32.1098 54.8759 31.7193C57.4518 30.9364 60.5415 32.1118 62.2239 34.5158C64.3753 37.5904 63.9207 40.7949 63.1612 42.9421C61.7207 47.0109 58.0161 50.6349 54.1523 51.7541C50.4933 52.8142 46.6489 51.944 42.9297 51.102C41.3883 50.7531 39.7934 50.3917 38.2121 50.164C35.6624 49.7967 30.1288 49.8268 27.4334 52.5642C26.1766 53.8403 25.7026 55.4827 26.0221 57.4479C26.3893 59.7037 28.1192 61.7405 30.5368 62.7637C32.5814 63.629 34.8086 64.068 37.1563 64.068C44.0506 64.068 51.1558 60.2947 56.8651 57.2637L57.5276 56.912C62.8251 54.1039 68.8288 50.9217 74.744 51.882C77.927 52.3994 80.4476 54.0409 81.4859 56.2754C82.5835 58.6349 81.9094 61.2918 79.8833 62.5922C77.8076 63.9255 74.6984 64.2792 70.3799 63.6755C67.1095 63.2182 63.8459 62.1949 60.6804 60.6339C60.2064 60.4004 59.7441 60.1581 59.2934 59.9071C58.8767 59.6756 58.3571 59.7453 58.019 60.0825C57.5431 60.5573 57.6577 61.3519 58.2454 61.6794C58.7398 61.9556 59.2478 62.2221 59.7674 62.4779C63.1311 64.1368 66.6064 65.2249 70.0954 65.7123C71.5319 65.9129 72.8733 66.0156 74.0836 66.0156C76.9645 66.0156 79.2266 65.4614 81.0012 64.3218C83.9006 62.4595 84.8923 58.7104 83.3576 55.4091ZM56.532 29.2562C55.1576 29.2562 53.8648 28.7213 52.8934 27.7513C51.9221 26.7814 51.3869 25.4917 51.3869 24.1205C51.3869 22.7494 51.9231 21.4597 52.8954 20.4907C53.8677 19.5217 55.1595 18.9878 56.5339 18.9878V18.3929L56.5349 18.9878C59.3731 18.9888 61.6809 21.2921 61.6799 24.1234C61.6799 25.4946 61.1438 26.7843 60.1715 27.7533C59.1992 28.7223 57.9074 29.2562 56.532 29.2562Z" fill="#49BFBF"/>
<path d="M35.5206 17.3167L45.9243 21.4145L35.0339 18.868L35.5206 17.3167Z" fill="#D4AF37"/>
<path d="M45.9242 21.7927C45.8961 21.7927 45.8669 21.7898 45.8378 21.783L34.9474 19.2365C34.8445 19.2123 34.7571 19.1474 34.7046 19.0553C34.6522 18.9642 34.6405 18.8547 34.6716 18.754L35.1582 17.2026C35.1893 17.1019 35.2612 17.0195 35.3564 16.9739C35.4516 16.9284 35.5613 16.9245 35.6594 16.9633L46.0641 21.0611C46.2496 21.1338 46.3467 21.3373 46.2875 21.5262C46.236 21.6881 46.0874 21.7927 45.9242 21.7927ZM35.5186 18.5912L40.9501 19.8615L35.7604 17.8179L35.5186 18.5912Z" fill="#D4AF37"/>
<path d="M36.8867 34.8832L46.5046 29.1855L37.8192 36.2165L36.8867 34.8832Z" fill="#D4AF37"/>
<path d="M37.8192 36.5945C37.8017 36.5945 37.7843 36.5935 37.7668 36.5906C37.6619 36.5761 37.5686 36.5189 37.5084 36.4327L36.576 35.0994C36.5157 35.0131 36.4944 34.9056 36.5167 34.8029C36.539 34.7001 36.6032 34.611 36.6945 34.5577L46.3124 28.8601C46.4833 28.7583 46.7038 28.8068 46.8175 28.9696C46.9311 29.1323 46.9 29.3552 46.7456 29.4802L38.0591 36.5112C37.9902 36.5654 37.9057 36.5945 37.8192 36.5945ZM37.4327 34.9996L37.8979 35.6643L42.23 32.1575L37.4327 34.9996Z" fill="#D4AF37"/>
<path d="M48.5802 3.67114L52.0177 14.2893L47.0698 4.2816L48.5802 3.67114Z" fill="#D4AF37"/>
<path d="M52.0173 14.6669C51.8764 14.6669 51.7424 14.5884 51.6763 14.4557L46.7285 4.44799C46.6819 4.35303 46.677 4.2445 46.7139 4.14566C46.7518 4.04683 46.8285 3.96931 46.9266 3.92958L48.437 3.31912C48.5351 3.27939 48.6449 3.2823 48.7401 3.32688C48.8353 3.37145 48.9081 3.45381 48.9411 3.55362L52.3786 14.1727C52.4398 14.3617 52.3446 14.5652 52.1601 14.6408C52.1125 14.6582 52.0649 14.6669 52.0173 14.6669ZM47.591 4.47803L50.0581 9.46928L48.3438 4.17377L47.591 4.47803Z" fill="#D4AF37"/>
<path d="M65.3731 4.25754L60.5156 14.3098L63.8569 3.66064L65.3731 4.25754Z" fill="#D4AF37"/>
<path d="M60.5158 14.69C60.4692 14.69 60.4216 14.6813 60.376 14.6638C60.1904 14.5911 60.0933 14.3877 60.1535 14.1987L63.4948 3.54955C63.5259 3.44877 63.5988 3.36641 63.693 3.32087C63.7882 3.27533 63.8979 3.27145 63.996 3.31021L65.5113 3.90807C65.6094 3.94683 65.6871 4.02435 65.725 4.12222C65.7638 4.22008 65.759 4.32958 65.7133 4.42454L60.8568 14.4768C60.7936 14.6105 60.6577 14.69 60.5158 14.69ZM64.098 4.16389L62.4313 9.4749L64.8537 4.46233L64.098 4.16389Z" fill="#D4AF37"/>
<path d="M77.2112 16.6069L66.9211 20.9809L76.4652 15.1611L77.2112 16.6069Z" fill="#D4AF37"/>
<path d="M66.9213 21.3611C66.7834 21.3611 66.6503 21.2855 66.5833 21.1557C66.492 20.9793 66.5532 20.7622 66.7231 20.6586L76.2672 14.8388C76.3576 14.7836 76.4664 14.7691 76.5674 14.7972C76.6684 14.8253 76.7539 14.895 76.8024 14.9881L77.5484 16.4328C77.597 16.5268 77.6038 16.6353 77.5678 16.7351C77.5319 16.8349 77.4561 16.9144 77.36 16.9551L67.0699 21.3291C67.0223 21.3514 66.9718 21.3611 66.9213 21.3611ZM76.3148 15.6983L71.5554 18.6004L76.6868 16.4192L76.3148 15.6983Z" fill="#D4AF37"/>
<path d="M76.7623 34.9343L67.158 29.2153L77.4937 33.4808L76.7623 34.9343Z" fill="#D4AF37"/>
<path d="M76.7626 35.3125C76.6946 35.3125 76.6276 35.2941 76.5683 35.2592L66.963 29.5402C66.7921 29.4385 66.7289 29.2224 66.8183 29.0451C66.9077 28.8678 67.1194 28.7893 67.303 28.8649L77.6387 33.1303C77.7358 33.171 77.8126 33.2495 77.8495 33.3484C77.8864 33.4472 77.8806 33.5567 77.833 33.6507L77.1016 35.1032C77.054 35.1972 76.9695 35.2679 76.8685 35.297C76.8345 35.3077 76.7985 35.3125 76.7626 35.3125ZM71.8167 31.547L76.6062 34.3987L76.9704 33.6739L71.8167 31.547Z" fill="#D4AF37"/>
<path d="M5.10706 88.7994L5.47324 88.6366C5.63156 88.9467 5.93267 89.1027 6.37656 89.1027C6.62036 89.1027 6.81365 89.0475 6.95643 88.938C7.09921 88.8304 7.17012 88.688 7.17012 88.5145C7.16041 88.2694 7.03996 88.1395 6.81365 88.0417C6.65533 87.9738 6.53294 87.9419 6.32217 87.8944C6.16384 87.8614 6.02592 87.8217 5.90839 87.7791C5.79086 87.7364 5.67041 87.6764 5.54706 87.6037C5.30131 87.4564 5.16533 87.2132 5.16533 86.9002C5.16533 86.6095 5.26829 86.3721 5.4713 86.187C5.6743 86.002 5.94335 85.9089 6.27943 85.9089C6.78937 85.9089 7.1876 86.1289 7.40129 86.5194L7.06716 86.7452C6.92438 86.4545 6.66115 86.3091 6.27943 86.3091C6.06088 86.3091 5.88799 86.3615 5.75977 86.469C5.63156 86.5766 5.56648 86.7171 5.56648 86.8867C5.56648 87.1124 5.71218 87.282 6.00357 87.3954C6.12693 87.4428 6.25709 87.4729 6.42804 87.5078C6.5106 87.5252 6.57859 87.5426 6.6291 87.5552C7.25656 87.7277 7.5703 88.0485 7.5703 88.5136C7.5703 88.8043 7.45957 89.0417 7.24199 89.2248C7.02345 89.4099 6.73303 89.5029 6.37364 89.5029C5.79766 89.5029 5.33531 89.2684 5.10706 88.7994Z" fill="#49BFBF"/>
<path d="M6.37158 89.6229C5.72857 89.6229 5.24098 89.3486 4.99815 88.8515C4.98358 88.8225 4.98163 88.7886 4.99329 88.7575C5.00494 88.7265 5.02729 88.7023 5.0574 88.6887L5.42358 88.526C5.48186 88.4998 5.55082 88.524 5.57996 88.5812C5.71692 88.8506 5.97723 88.9814 6.37547 88.9814C6.59013 88.9814 6.7601 88.9339 6.88152 88.8409C6.99419 88.7566 7.04761 88.649 7.04761 88.5134C7.04081 88.336 6.96311 88.2372 6.76399 88.151C6.61635 88.088 6.50465 88.0579 6.29387 88.0105C6.14429 87.9795 5.99957 87.9397 5.86553 87.8913C5.74703 87.8486 5.62173 87.7876 5.4838 87.7062C5.19921 87.5357 5.04282 87.2488 5.04282 86.899C5.04282 86.5754 5.15938 86.306 5.38861 86.0967C5.61396 85.8913 5.91312 85.7876 6.27833 85.7876C6.83295 85.7876 7.26907 86.0269 7.50607 86.4611C7.53618 86.5153 7.51967 86.5831 7.46819 86.618L7.13406 86.8438C7.10492 86.8632 7.06898 86.869 7.03596 86.8603C7.00196 86.8516 6.97379 86.8283 6.95922 86.7973C6.83684 86.5492 6.61441 86.4291 6.27931 86.4291C6.08699 86.4291 5.94323 86.4727 5.83736 86.5608C5.73634 86.6461 5.6868 86.7527 5.6868 86.8864C5.6868 86.9504 5.68681 87.1432 6.04619 87.2827C6.15498 87.3254 6.2725 87.3535 6.45123 87.3903C6.52213 87.4058 6.58236 87.4203 6.63092 87.432L6.65714 87.4388C7.34289 87.6277 7.68965 87.9891 7.68965 88.5143C7.68965 88.8409 7.56435 89.1112 7.31764 89.3176C7.0787 89.5201 6.7601 89.6229 6.37158 89.6229ZM5.27594 88.8564C5.49254 89.1975 5.87621 89.3835 6.37158 89.3835C6.70085 89.3835 6.96699 89.2992 7.16125 89.1345C7.35454 88.9727 7.44779 88.7711 7.44779 88.5153C7.44779 88.1064 7.16903 87.8302 6.59498 87.6723L6.57167 87.6665C6.52602 87.6548 6.46871 87.6403 6.40169 87.6267C6.24045 87.5938 6.09572 87.5618 5.95877 87.5085C5.53431 87.3438 5.44495 87.0802 5.44495 86.8884C5.44495 86.682 5.5246 86.5105 5.68098 86.3787C5.82959 86.2537 6.03065 86.1897 6.27833 86.1897C6.65423 86.1897 6.93202 86.3186 7.10589 86.5744L7.23799 86.4853C7.03499 86.1907 6.69891 86.0298 6.27931 86.0298C5.97237 86.0298 5.7344 86.1103 5.55276 86.276C5.37307 86.4397 5.28565 86.6442 5.28565 86.901C5.28565 87.1665 5.39735 87.3748 5.6091 87.5017C5.73343 87.5754 5.84513 87.6296 5.94906 87.6674C6.07242 87.712 6.20549 87.7488 6.34633 87.7779C6.56973 87.8283 6.696 87.8622 6.86112 87.9329C7.14669 88.057 7.27878 88.2353 7.29044 88.5114C7.29044 88.7275 7.20011 88.9068 7.02916 89.0356C6.86598 89.1616 6.64646 89.2256 6.37644 89.2256C5.93352 89.2256 5.61396 89.0802 5.42358 88.7934L5.27594 88.8564Z" fill="#49BFBF"/>
<path d="M11.3138 88.9786C10.9602 88.6278 10.7844 88.2072 10.7844 87.714C10.7844 87.2208 10.9602 86.8003 11.3089 86.4495C11.6576 86.0987 12.0821 85.9233 12.5784 85.9233C13.0757 85.9233 13.4992 86.0987 13.8508 86.4495C14.2025 86.8003 14.3783 87.2208 14.3783 87.714C14.3783 88.2072 14.2025 88.6278 13.8489 88.9786C13.4953 89.3293 13.0738 89.5038 12.5794 89.5038C12.0899 89.5038 11.6683 89.3293 11.3138 88.9786ZM13.5624 88.6956C13.8363 88.4253 13.9713 88.0977 13.9713 87.714C13.9713 87.3313 13.8353 87.0057 13.5624 86.7324C13.2894 86.4592 12.9631 86.3245 12.5784 86.3245C12.1948 86.3245 11.8655 86.4602 11.5974 86.7305C11.3264 87.0009 11.1904 87.3284 11.1904 87.714C11.1904 88.0977 11.3264 88.4224 11.5994 88.6956C11.8733 88.9689 12.1986 89.1036 12.5784 89.1036C12.9631 89.1036 13.2894 88.9679 13.5624 88.6956Z" fill="#49BFBF"/>
<path d="M12.5784 89.6235C12.0587 89.6235 11.6042 89.4345 11.2283 89.0624C10.8533 88.6913 10.663 88.2368 10.663 87.7126C10.663 87.1903 10.8514 86.7368 11.2224 86.3638C11.5935 85.9917 12.049 85.8027 12.5774 85.8027C13.1048 85.8027 13.5613 85.9917 13.9353 86.3638C14.3083 86.7359 14.4977 87.1903 14.4977 87.7126C14.4977 88.2368 14.3073 88.6913 13.9324 89.0624C13.5584 89.4355 13.1019 89.6235 12.5784 89.6235ZM12.5784 86.044C12.116 86.044 11.7178 86.2087 11.3944 86.5343C11.0651 86.8657 10.9048 87.2514 10.9048 87.7136C10.9048 88.1777 11.0661 88.5634 11.3982 88.8928C11.7314 89.2233 12.117 89.3831 12.5784 89.3831C13.0427 89.3831 13.4302 89.2223 13.7634 88.8928C14.0956 88.5634 14.2568 88.1777 14.2568 87.7136C14.2568 87.2504 14.0956 86.8647 13.7653 86.5343C13.4351 86.2039 13.0466 86.044 12.5784 86.044ZM12.5784 89.2233C12.1675 89.2233 11.8091 89.074 11.5148 88.7795C11.2195 88.4849 11.0699 88.1264 11.0699 87.7126C11.0699 87.2959 11.2186 86.9365 11.5119 86.6438C11.8023 86.3512 12.1617 86.2029 12.5784 86.2029C12.9931 86.2029 13.3525 86.3521 13.6468 86.6467C13.9421 86.9413 14.0917 87.2998 14.0917 87.7126C14.0917 88.1283 13.9421 88.4878 13.6468 88.7795C13.3525 89.074 12.9931 89.2233 12.5784 89.2233ZM12.5784 86.4442C12.2277 86.4442 11.9266 86.5682 11.6828 86.8144C11.4322 87.0644 11.3108 87.358 11.3108 87.7136C11.3108 88.0653 11.4332 88.3589 11.6848 88.6099C11.9364 88.8609 12.2287 88.983 12.5784 88.983C12.931 88.983 13.2253 88.8609 13.4768 88.6099C13.7284 88.3609 13.8508 88.0682 13.8508 87.7136C13.8508 87.3618 13.7284 87.0682 13.4768 86.8173C13.2262 86.5663 12.9319 86.4442 12.5784 86.4442Z" fill="#49BFBF"/>
<path d="M18.1794 85.9199H17.7725V89.5052H18.1794V85.9199Z" fill="#49BFBF"/>
<path d="M18.1788 89.6241H17.7718C17.7048 89.6241 17.6514 89.5708 17.6514 89.504V85.9187C17.6514 85.8519 17.7058 85.7986 17.7718 85.7986H18.1788C18.2448 85.7986 18.2992 85.8519 18.2992 85.9187V89.504C18.2992 89.5708 18.2458 89.6241 18.1788 89.6241ZM17.8932 89.3838H18.0584V86.0399H17.8932V89.3838Z" fill="#49BFBF"/>
<path d="M24.1718 85.9241H24.5778V89.5035H24.2641L22.2642 86.7254V89.5035H21.8601V85.9241H22.1894L24.1718 88.6779V85.9241Z" fill="#49BFBF"/>
<path d="M24.5777 89.6235H24.2639C24.2251 89.6235 24.1892 89.605 24.1658 89.5731L22.3845 87.0983V89.5033C22.3845 89.5702 22.331 89.6235 22.264 89.6235H21.86C21.7929 89.6235 21.7395 89.5702 21.7395 89.5033V85.9229C21.7395 85.856 21.7939 85.8027 21.86 85.8027H22.1892C22.2281 85.8027 22.264 85.8211 22.2873 85.8531L24.0512 88.3037V85.9229C24.0512 85.856 24.1056 85.8027 24.1717 85.8027H24.5787C24.6457 85.8027 24.6991 85.856 24.6991 85.9229V89.5033C24.6981 89.5702 24.6447 89.6235 24.5777 89.6235ZM24.3261 89.3831H24.4572V86.044H24.2911V88.6777C24.2911 88.73 24.2571 88.7766 24.2076 88.7921C24.1581 88.8076 24.1037 88.7901 24.0726 88.7475L22.1261 86.044H21.9794V89.3831H22.1426V86.7242C22.1426 86.6719 22.1766 86.6254 22.2261 86.6099C22.2757 86.5934 22.3301 86.6118 22.3611 86.6545L24.3261 89.3831Z" fill="#49BFBF"/>
<path d="M27.811 88.7994L28.1772 88.6366C28.3355 88.9467 28.6367 89.1027 29.0805 89.1027C29.3243 89.1027 29.5176 89.0475 29.6604 88.938C29.8032 88.8304 29.8731 88.688 29.8731 88.5145C29.8634 88.2694 29.743 88.1395 29.5167 88.0417C29.3583 87.9738 29.2359 87.9419 29.0252 87.8944C28.8668 87.8614 28.7289 87.8217 28.6114 87.7791C28.4939 87.7364 28.3734 87.6764 28.2501 87.6037C28.0043 87.4564 27.8684 87.2132 27.8684 86.9002C27.8684 86.6095 27.9713 86.3721 28.1743 86.187C28.3773 86.002 28.6464 85.9089 28.9824 85.9089C29.4924 85.9089 29.8906 86.1289 30.1043 86.5194L29.7702 86.7452C29.6274 86.4545 29.3632 86.3091 28.9824 86.3091C28.7639 86.3091 28.591 86.3615 28.4628 86.469C28.3346 86.5766 28.2695 86.7171 28.2695 86.8867C28.2695 87.1124 28.4152 87.282 28.7066 87.3954C28.8299 87.4428 28.9601 87.4729 29.1311 87.5078C29.2136 87.5252 29.2816 87.5426 29.3321 87.5552C29.9596 87.7277 30.2733 88.0485 30.2733 88.5136C30.2733 88.8043 30.1626 89.0417 29.944 89.2248C29.7255 89.4099 29.4341 89.5029 29.0757 89.5029C28.5016 89.5029 28.0393 89.2684 27.811 88.7994Z" fill="#49BFBF"/>
<path d="M29.0756 89.6229C28.4325 89.6229 27.9449 89.3486 27.7021 88.8515C27.6876 88.8225 27.6856 88.7886 27.6973 88.7575C27.7089 88.7265 27.7313 88.7023 27.7614 88.6887L28.1276 88.526C28.1858 88.4998 28.2548 88.524 28.2839 88.5812C28.4209 88.8506 28.6812 88.9814 29.0794 88.9814C29.2941 88.9814 29.4651 88.9339 29.5855 88.8409C29.6982 88.7566 29.7516 88.649 29.7516 88.5134C29.7448 88.336 29.6671 88.2372 29.468 88.151C29.3203 88.088 29.2077 88.0579 28.9969 88.0105C28.8473 87.9795 28.7026 87.9397 28.5685 87.8913C28.45 87.8486 28.3247 87.7876 28.1868 87.7062C27.9022 87.5357 27.7458 87.2488 27.7458 86.899C27.7458 86.5754 27.8624 86.306 28.0916 86.0967C28.317 85.8913 28.6161 85.7876 28.9813 85.7876C29.536 85.7876 29.9721 86.0269 30.2091 86.4611C30.2392 86.5153 30.2227 86.5831 30.1712 86.618L29.8371 86.8438C29.8079 86.8632 29.772 86.869 29.739 86.8603C29.705 86.8516 29.6768 86.8283 29.6622 86.7973C29.5398 86.5492 29.3174 86.4291 28.9823 86.4291C28.791 86.4291 28.6462 86.4727 28.5404 86.5608C28.4393 86.6461 28.3898 86.7527 28.3898 86.8864C28.3898 86.9504 28.3898 87.1432 28.7492 87.2827C28.858 87.3254 28.9755 87.3535 29.1542 87.3903C29.2251 87.4058 29.2854 87.4203 29.3339 87.432L29.3602 87.4388C30.0459 87.6277 30.3927 87.9891 30.3927 88.5143C30.3927 88.8409 30.2674 89.1112 30.0206 89.3176C29.7827 89.5201 29.4641 89.6229 29.0756 89.6229ZM27.9809 88.8564C28.1975 89.1975 28.5812 89.3835 29.0765 89.3835C29.4058 89.3835 29.6719 89.2992 29.8672 89.1345C30.0605 88.9727 30.1537 88.7711 30.1537 88.5153C30.1537 88.1064 29.875 87.8302 29.3009 87.6723L29.2776 87.6665C29.2319 87.6548 29.1746 87.6403 29.1076 87.6267C28.9464 87.5938 28.8016 87.5618 28.6647 87.5085C28.2402 87.3438 28.1509 87.0802 28.1509 86.8884C28.1509 86.6849 28.2325 86.5085 28.3869 86.3787C28.5355 86.2537 28.7366 86.1897 28.9843 86.1897C29.3602 86.1897 29.638 86.3186 29.8118 86.5744L29.9429 86.4853C29.7399 86.1907 29.4039 86.0298 28.9843 86.0298C28.6773 86.0298 28.4394 86.1103 28.2577 86.276C28.078 86.4397 27.9906 86.6442 27.9906 86.901C27.9906 87.1665 28.1023 87.3748 28.3141 87.5017C28.4384 87.5754 28.5501 87.6296 28.654 87.6674C28.7774 87.712 28.9104 87.7488 29.0513 87.7779C29.2747 87.8283 29.4009 87.8622 29.5661 87.9329C29.8516 88.057 29.9837 88.2353 29.9954 88.5114C29.9954 88.7275 29.9051 88.9068 29.7341 89.0356C29.5709 89.1616 29.3514 89.2256 29.0814 89.2256C28.6385 89.2256 28.3189 89.0802 28.1285 88.7934L27.9809 88.8564Z" fill="#49BFBF"/>
<path d="M40.1868 86.325H38.1568V87.5139H39.9712V87.9151H38.1568V89.104H40.1868V89.51H37.7576V85.9199H40.1868V86.325Z" fill="#49BFBF"/>
<path d="M40.1864 89.63H37.7572C37.6911 89.63 37.6367 89.5767 37.6367 89.5098V85.9197C37.6367 85.8529 37.6911 85.7996 37.7572 85.7996H40.1864C40.2534 85.7996 40.3069 85.8529 40.3069 85.9197V86.3248C40.3069 86.3916 40.2534 86.4449 40.1864 86.4449H38.2768V87.3936H39.9708C40.0378 87.3936 40.0912 87.4468 40.0912 87.5137V87.9139C40.0912 87.9808 40.0368 88.034 39.9708 88.034H38.2768V88.9827H40.1864C40.2534 88.9827 40.3069 89.036 40.3069 89.1028V89.5088C40.3069 89.5757 40.2534 89.63 40.1864 89.63ZM37.8776 89.3887H40.066V89.224H38.1564C38.0893 89.224 38.0359 89.1707 38.0359 89.1038V87.9149C38.0359 87.848 38.0903 87.7947 38.1564 87.7947H39.8503V87.6348H38.1564C38.0893 87.6348 38.0359 87.5815 38.0359 87.5147V86.3257C38.0359 86.2589 38.0903 86.2056 38.1564 86.2056H40.066V86.0408H37.8776V89.3887Z" fill="#49BFBF"/>
<path d="M39.4609 84.3801L39.0569 85.2532L38.8713 85.1863L39.1899 84.2822L39.4609 84.3801Z" fill="#49BFBF"/>
<path d="M39.057 85.3731C39.0434 85.3731 39.0288 85.3712 39.0162 85.3654L38.8307 85.2976C38.7685 85.2753 38.7365 85.2065 38.7578 85.1445L39.0764 84.2404C39.0871 84.2104 39.1094 84.1852 39.1386 84.1716C39.1677 84.158 39.2007 84.1561 39.2309 84.1667L39.5018 84.2646C39.5339 84.2762 39.5592 84.3005 39.5718 84.3315C39.5844 84.3625 39.5844 84.3974 39.5698 84.4284L39.1658 85.3024C39.1464 85.347 39.1026 85.3731 39.057 85.3731ZM39.2639 84.4361L39.1395 84.7898L39.2979 84.4487L39.2639 84.4361Z" fill="#49BFBF"/>
<path d="M45.8798 85.9241H46.2858V89.5035H45.9721L43.9722 86.7254V89.5035H43.5681V85.9241H43.8974L45.8798 88.6779V85.9241Z" fill="#49BFBF"/>
<path d="M46.2854 89.6235H45.9717C45.9328 89.6235 45.8969 89.605 45.8736 89.5731L44.0922 87.0983V89.5033C44.0922 89.5702 44.0378 89.6235 43.9718 89.6235H43.5677C43.5007 89.6235 43.4473 89.5702 43.4473 89.5033V85.9229C43.4473 85.856 43.5017 85.8027 43.5677 85.8027H43.897C43.9358 85.8027 43.9718 85.8211 43.9951 85.8531L45.759 88.3037V85.9229C45.759 85.856 45.8134 85.8027 45.8794 85.8027H46.2864C46.3534 85.8027 46.4068 85.856 46.4068 85.9229V89.5033C46.4059 89.5702 46.3525 89.6235 46.2854 89.6235ZM46.0339 89.3831H46.165V86.044H45.9999V88.6777C45.9999 88.73 45.9659 88.7766 45.9163 88.7921C45.8668 88.8076 45.8124 88.7901 45.7813 88.7475L43.8348 86.044H43.6881V89.3831H43.8513V86.7242C43.8513 86.6719 43.8853 86.6254 43.9349 86.6099C43.9844 86.5934 44.0388 86.6118 44.0699 86.6545L46.0339 89.3831Z" fill="#49BFBF"/>
<path d="M52.2649 86.325H50.2349V87.5139H52.0493V87.9151H50.2349V89.104H52.2649V89.51H49.8357V85.9199H52.2649V86.325Z" fill="#49BFBF"/>
<path d="M52.2648 89.63H49.8355C49.7685 89.63 49.7151 89.5767 49.7151 89.5098V85.9197C49.7151 85.8529 49.7685 85.7996 49.8355 85.7996H52.2648C52.3318 85.7996 52.3852 85.8529 52.3852 85.9197V86.3248C52.3852 86.3916 52.3308 86.4449 52.2648 86.4449H50.3552V87.3936H52.0491C52.1162 87.3936 52.1696 87.4468 52.1696 87.5137V87.9139C52.1696 87.9808 52.1152 88.034 52.0491 88.034H50.3552V88.9827H52.2648C52.3318 88.9827 52.3852 89.036 52.3852 89.1028V89.5088C52.3852 89.5757 52.3308 89.63 52.2648 89.63ZM49.956 89.3887H52.1443V89.224H50.2347C50.1687 89.224 50.1143 89.1707 50.1143 89.1038V87.9149C50.1143 87.848 50.1687 87.7947 50.2347 87.7947H51.9287V87.6348H50.2347C50.1687 87.6348 50.1143 87.5815 50.1143 87.5147V86.3257C50.1143 86.2589 50.1687 86.2056 50.2347 86.2056H52.1443V86.0408H49.956V89.3887Z" fill="#49BFBF"/>
<path d="M58.2812 89.5038H57.814L56.898 87.9291H56.0501V89.5038H55.646V85.9233H57.0534C57.3341 85.9233 57.5731 86.0212 57.7712 86.2189C57.9665 86.4166 58.0646 86.652 58.0646 86.9253C58.0646 87.1481 57.9966 87.3458 57.8615 87.5231C57.7256 87.7005 57.5527 87.8235 57.3448 87.8884L58.2812 89.5038ZM56.0501 86.3245V87.5241H57.0534C57.2215 87.5241 57.3642 87.4669 57.4827 87.3487C57.6003 87.2334 57.6585 87.091 57.6585 86.9233C57.6585 86.7557 57.6003 86.6152 57.4827 86.498C57.3652 86.3826 57.2215 86.3255 57.0534 86.3255H56.0501V86.3245Z" fill="#49BFBF"/>
<path d="M58.2812 89.6235H57.814C57.7713 89.6235 57.7315 89.6002 57.7101 89.5634L56.8291 88.0489H56.1706V89.5033C56.1706 89.5702 56.1172 89.6235 56.0501 89.6235H55.6461C55.5791 89.6235 55.5256 89.5702 55.5256 89.5033V85.9229C55.5256 85.856 55.58 85.8027 55.6461 85.8027H57.0535C57.3663 85.8027 57.6363 85.9142 57.8568 86.1332C58.0753 86.3541 58.1851 86.6196 58.1851 86.9239C58.1851 87.1709 58.1083 87.3967 57.9568 87.5954C57.8373 87.7523 57.6907 87.8706 57.5188 87.949L58.3842 89.4423C58.4056 89.4791 58.4056 89.5256 58.3842 89.5624C58.3638 89.6012 58.324 89.6235 58.2812 89.6235ZM57.884 89.3831H58.0724L57.241 87.949C57.2225 87.9171 57.2196 87.8793 57.2332 87.8454C57.2468 87.8114 57.274 87.7853 57.3099 87.7746C57.4925 87.7174 57.647 87.6089 57.7674 87.451C57.8879 87.293 57.9461 87.1215 57.9461 86.9258C57.9461 86.6835 57.8616 86.4801 57.6878 86.3037C57.5129 86.1293 57.306 86.044 57.0554 86.044H55.7685V89.3831H55.9316V87.9287C55.9316 87.8618 55.9851 87.8085 56.0521 87.8085H56.9C56.9428 87.8085 56.9826 87.8318 57.004 87.8686L57.884 89.3831ZM57.0535 87.6438H56.0501C55.9831 87.6438 55.9297 87.5905 55.9297 87.5237V86.324C55.9297 86.2572 55.9831 86.2039 56.0501 86.2039H57.0535C57.2536 86.2039 57.4265 86.2737 57.5673 86.4113C57.7082 86.5518 57.7791 86.7233 57.7791 86.9229C57.7791 87.1244 57.7082 87.2969 57.5673 87.4345C57.4284 87.5731 57.2555 87.6438 57.0535 87.6438ZM56.1706 87.4035H57.0535C57.1905 87.4035 57.3031 87.358 57.3974 87.263C57.4925 87.17 57.5382 87.0595 57.5382 86.9219C57.5382 86.7853 57.4935 86.6768 57.3974 86.5818C57.3031 86.4897 57.1905 86.4442 57.0535 86.4442H56.1706V87.4035Z" fill="#49BFBF"/>
<path d="M63.0217 87.7341H64.944C64.9265 88.24 64.7458 88.6605 64.3991 88.9987C64.0523 89.3368 63.6366 89.5045 63.149 89.5045C62.6546 89.5045 62.233 89.3291 61.8814 88.9793C61.5298 88.6285 61.354 88.208 61.354 87.7148C61.354 87.2215 61.5298 86.801 61.8785 86.4502C62.2272 86.0995 62.6517 85.9241 63.148 85.9241C63.4938 85.9241 63.8134 86.0171 64.1018 86.2022C64.3903 86.3872 64.6137 86.6382 64.772 86.956L64.4136 87.1915C64.3282 86.9338 64.1679 86.7254 63.9319 86.5655C63.6929 86.4057 63.4326 86.3252 63.149 86.3252C62.7653 86.3252 62.439 86.4609 62.165 86.7332C61.8911 87.0064 61.7561 87.331 61.7561 87.7148C61.7561 88.0985 61.8921 88.426 62.165 88.6963C62.436 88.9696 62.7643 89.1043 63.149 89.1043C63.453 89.1043 63.7289 89.0142 63.9746 88.831C64.2184 88.6508 64.3864 88.4202 64.4739 88.1401H63.0208V87.7341H63.0217Z" fill="#49BFBF"/>
<path d="M63.1508 89.6235C62.6263 89.6235 62.1707 89.4345 61.7987 89.0624C61.4257 88.6903 61.2363 88.2359 61.2363 87.7126C61.2363 87.1903 61.4248 86.7368 61.7958 86.3638C62.1668 85.9917 62.6224 85.8027 63.1508 85.8027C63.5199 85.8027 63.8628 85.9025 64.1697 86.1002C64.4757 86.2969 64.7156 86.5663 64.8826 86.9016C64.9098 86.9558 64.8914 87.0217 64.8409 87.0556L64.4825 87.2911C64.4514 87.3114 64.4116 87.3163 64.3766 87.3037C64.3416 87.2911 64.3134 87.263 64.3018 87.2281C64.2251 86.9946 64.0823 86.8105 63.8666 86.6632C63.65 86.5178 63.4092 86.4442 63.1518 86.4442C62.7982 86.4442 62.5049 86.5663 62.2533 86.8173C62.0017 87.0682 61.8793 87.3618 61.8793 87.7136C61.8793 88.0682 62.0017 88.3609 62.2533 88.6099C62.5029 88.8609 62.7963 88.983 63.1518 88.983C63.4296 88.983 63.6831 88.8986 63.9055 88.7339C64.0813 88.6031 64.2144 88.4442 64.3018 88.2601H63.0245C62.9575 88.2601 62.9041 88.2068 62.9041 88.1399V87.7339C62.9041 87.6671 62.9585 87.6138 63.0245 87.6138H64.9467C64.9798 87.6138 65.0109 87.6273 65.0332 87.6506C65.0555 87.6739 65.0682 87.7058 65.0672 87.7388C65.0487 88.2746 64.8535 88.7271 64.4863 89.0847C64.1172 89.4422 63.6685 89.6235 63.1508 89.6235ZM63.1508 86.044C62.6884 86.044 62.2902 86.2087 61.9668 86.5343C61.6375 86.8657 61.4772 87.2514 61.4772 87.7136C61.4772 88.1777 61.6385 88.5634 61.9687 88.8928C62.2989 89.2233 62.6855 89.3831 63.1508 89.3831C63.6102 89.3831 63.991 89.2291 64.3164 88.9112C64.6126 88.6215 64.7777 88.2746 64.8166 87.8531H63.143V88.0188H64.4757C64.5135 88.0188 64.5504 88.0372 64.5728 88.0682C64.5951 88.0992 64.6019 88.139 64.5912 88.1748C64.497 88.4771 64.3144 88.7291 64.0483 88.9267C63.7841 89.1235 63.482 89.2233 63.1508 89.2233C62.7341 89.2233 62.3737 89.074 62.0814 88.7795C61.7871 88.4888 61.6375 88.1293 61.6375 87.7136C61.6375 87.2998 61.7871 86.9413 62.0823 86.6477C62.3767 86.3531 62.737 86.2039 63.1508 86.2039C63.4577 86.2039 63.7433 86.2921 64.0007 86.4645C64.2134 86.6089 64.3717 86.7921 64.4727 87.0091L64.6165 86.9151C64.4727 86.6632 64.2795 86.4568 64.0395 86.3027C63.7715 86.1312 63.4723 86.044 63.1508 86.044Z" fill="#49BFBF"/>
<path d="M70.7334 86.325H68.7034V87.5139H70.5178V87.9151H68.7034V89.104H70.7334V89.51H68.3042V85.9199H70.7334V86.325Z" fill="#49BFBF"/>
<path d="M70.7335 89.63H68.3043C68.2373 89.63 68.1838 89.5767 68.1838 89.5098V85.9197C68.1838 85.8529 68.2373 85.7996 68.3043 85.7996H70.7335C70.8005 85.7996 70.854 85.8529 70.854 85.9197V86.3248C70.854 86.3916 70.8005 86.4449 70.7335 86.4449H68.8239V87.3936H70.5179C70.5849 87.3936 70.6383 87.4468 70.6383 87.5137V87.9139C70.6383 87.9808 70.5839 88.034 70.5179 88.034H68.8239V88.9827H70.7335C70.8005 88.9827 70.854 89.036 70.854 89.1028V89.5088C70.854 89.5757 70.7996 89.63 70.7335 89.63ZM68.4247 89.3887H70.6131V89.224H68.7035C68.6365 89.224 68.583 89.1707 68.583 89.1038V87.9149C68.583 87.848 68.6365 87.7947 68.7035 87.7947H70.3975V87.6348H68.7035C68.6365 87.6348 68.583 87.5815 68.583 87.5147V86.3257C68.583 86.2589 68.6365 86.2056 68.7035 86.2056H70.6131V86.0408H68.4247V89.3887Z" fill="#49BFBF"/>
<path d="M70.008 84.3801L69.604 85.2532L69.4185 85.1863L69.737 84.2822L70.008 84.3801Z" fill="#49BFBF"/>
<path d="M69.6041 85.3731C69.5905 85.3731 69.5759 85.3712 69.5633 85.3654L69.3778 85.2976C69.3156 85.2753 69.2836 85.2065 69.305 85.1445L69.6235 84.2404C69.6342 84.2104 69.6566 84.1852 69.6857 84.1716C69.7148 84.158 69.7479 84.1561 69.778 84.1667L70.049 84.2646C70.081 84.2762 70.1063 84.3005 70.1189 84.3315C70.1315 84.3625 70.1315 84.3974 70.117 84.4284L69.7129 85.3024C69.6935 85.347 69.6498 85.3731 69.6041 85.3731ZM69.81 84.4361L69.6857 84.7898L69.844 84.4487L69.81 84.4361Z" fill="#49BFBF"/>
<path d="M76.7974 85.9241V86.3243H75.5075V89.5035H75.1053V86.3243H73.8164V85.9241H76.7974Z" fill="#49BFBF"/>
<path d="M75.5075 89.6235H75.1064C75.0394 89.6235 74.9859 89.5702 74.9859 89.5033V86.4442H73.8165C73.7495 86.4442 73.696 86.3899 73.696 86.3241V85.9239C73.696 85.857 73.7495 85.8037 73.8165 85.8037H76.7974C76.8645 85.8037 76.9179 85.857 76.9179 85.9239V86.3241C76.9179 86.3909 76.8645 86.4442 76.7974 86.4442H75.628V89.5033C75.628 89.5702 75.5736 89.6235 75.5075 89.6235ZM75.2259 89.3832H75.3861V86.3241C75.3861 86.2572 75.4395 86.2039 75.5066 86.2039H76.676V86.044H73.936V86.2039H75.1054C75.1724 86.2039 75.2259 86.2572 75.2259 86.3241V89.3832Z" fill="#49BFBF"/>
<path d="M80.4893 85.9199H80.0833V89.5052H80.4893V85.9199Z" fill="#49BFBF"/>
<path d="M80.4901 89.6241H80.0841C80.017 89.6241 79.9636 89.5708 79.9636 89.504V85.9187C79.9636 85.8519 80.017 85.7986 80.0841 85.7986H80.4901C80.5571 85.7986 80.6105 85.8519 80.6105 85.9187V89.504C80.6105 89.5708 80.5561 89.6241 80.4901 89.6241ZM80.2035 89.3838H80.3687V86.0399H80.2035V89.3838Z" fill="#49BFBF"/>
<path d="M87.007 88.9502L87.376 89.333L87.0701 89.5956L86.699 89.2099C86.3979 89.4076 86.0667 89.5074 85.7073 89.5074C85.2178 89.5074 84.7962 89.332 84.4427 88.9812C84.0891 88.6305 83.9133 88.2099 83.9133 87.7167C83.9133 87.2235 84.0891 86.803 84.4378 86.4522C84.7865 86.1014 85.211 85.926 85.7073 85.926C86.2037 85.926 86.6281 86.1014 86.9798 86.4522C87.3314 86.803 87.5072 87.2235 87.5072 87.7167C87.5062 88.1973 87.3411 88.6082 87.007 88.9502ZM86.4145 88.9134L85.9676 88.4531L86.2765 88.1925L86.7282 88.6634C86.9739 88.4008 87.0973 88.0849 87.0992 87.7196C87.0992 87.3369 86.9632 87.0113 86.6922 86.7409C86.4213 86.4706 86.0929 86.3359 85.7064 86.3359C85.3227 86.3359 84.9963 86.4716 84.7253 86.739C84.4543 87.0074 84.3193 87.3349 84.3193 87.7206C84.3193 88.1033 84.4553 88.4289 84.7283 88.7022C85.0022 88.9754 85.3276 89.1101 85.7073 89.1101C85.9579 89.1082 86.194 89.0433 86.4145 88.9134Z" fill="#49BFBF"/>
<path d="M87.0699 89.7163C87.0379 89.7163 87.0068 89.7037 86.9835 89.6794L86.6795 89.3645C86.3813 89.5399 86.0549 89.6291 85.7072 89.6291C85.1875 89.6291 84.7329 89.4401 84.357 89.068C83.9821 88.6969 83.7917 88.2424 83.7917 87.7182C83.7917 87.1959 83.9802 86.7424 84.3512 86.3694C84.7223 85.9973 85.1778 85.8083 85.7062 85.8083C86.2336 85.8083 86.6911 85.9973 87.0641 86.3694C87.4371 86.7415 87.6265 87.1959 87.6265 87.7182C87.6265 88.1882 87.474 88.601 87.1719 88.9479L87.4623 89.2492C87.4856 89.2734 87.4973 89.3054 87.4963 89.3384C87.4944 89.3713 87.4798 89.4023 87.4546 89.4236L87.1486 89.6862C87.1253 89.7066 87.0971 89.7163 87.0699 89.7163ZM86.6979 89.0903C86.73 89.0903 86.761 89.1029 86.7843 89.1271L87.0767 89.4304L87.2001 89.3248L86.9194 89.0331C86.8747 88.9866 86.8747 88.913 86.9194 88.8665C87.2321 88.5448 87.3846 88.1688 87.3846 87.7182C87.3846 87.255 87.2234 86.8694 86.8931 86.539C86.5619 86.2085 86.1734 86.0487 85.7062 86.0487C85.2439 86.0487 84.8456 86.2134 84.5222 86.539C84.1929 86.8694 84.0326 87.256 84.0326 87.7182C84.0326 88.1824 84.1939 88.568 84.527 88.8975C84.8602 89.2279 85.2468 89.3887 85.7072 89.3887C86.0403 89.3887 86.3512 89.2948 86.6319 89.1107C86.6523 89.0971 86.6756 89.0903 86.6979 89.0903ZM85.7072 89.2279C85.2963 89.2279 84.9379 89.0787 84.6436 88.7851C84.3483 88.4905 84.1997 88.132 84.1997 87.7192C84.1997 87.3016 84.3483 86.9421 84.6416 86.6523C84.936 86.3616 85.2944 86.2143 85.7081 86.2143C86.1258 86.2143 86.4862 86.3626 86.7795 86.6552C87.0728 86.9479 87.2214 87.3054 87.2214 87.7192C87.2185 88.1165 87.0825 88.4614 86.8174 88.7453C86.795 88.7696 86.763 88.7831 86.73 88.7831H86.729C86.696 88.7831 86.6649 88.7696 86.6416 88.7463L86.2676 88.3577L86.1443 88.4624L86.5017 88.8306C86.5269 88.8568 86.5396 88.8936 86.5347 88.9304C86.5299 88.9672 86.5085 88.9992 86.4765 89.0176C86.2375 89.1572 85.9791 89.2279 85.7072 89.2279ZM85.7072 86.4547C85.3546 86.4547 85.0612 86.5748 84.8107 86.8229C84.561 87.069 84.4396 87.3626 84.4396 87.7192C84.4396 88.0709 84.562 88.3645 84.8136 88.6155C85.0651 88.8665 85.3575 88.9886 85.7072 88.9886C85.8839 88.9886 86.0539 88.9527 86.2161 88.881L85.882 88.536C85.8587 88.5118 85.8461 88.4798 85.848 88.4459C85.8499 88.413 85.8655 88.382 85.8907 88.3597L86.1996 88.099C86.2482 88.0583 86.3201 88.0622 86.3647 88.1078L86.7241 88.4827C86.8941 88.2638 86.9776 88.0118 86.9806 87.7172C86.9806 87.3655 86.8591 87.0729 86.6095 86.8238C86.358 86.5758 86.0636 86.4547 85.7072 86.4547Z" fill="#49BFBF"/>
<path d="M92.1037 89.5038C91.7249 89.5038 91.4014 89.371 91.1353 89.1036C90.8692 88.8361 90.7361 88.5154 90.7361 88.1394V85.9233H91.1372V88.1394C91.1372 88.4069 91.2324 88.6326 91.4209 88.8206C91.6093 89.0086 91.8346 89.1036 92.1037 89.1036C92.3727 89.1036 92.601 89.0086 92.7885 88.8206C92.9769 88.6326 93.0692 88.4078 93.0692 88.1394V85.9233H93.4761V88.1394C93.4761 88.5173 93.3431 88.84 93.075 89.1055C92.8059 89.371 92.4825 89.5038 92.1037 89.5038Z" fill="#49BFBF"/>
<path d="M92.1033 89.6235C91.6914 89.6235 91.3369 89.4771 91.0494 89.1874C90.7609 88.8977 90.6152 88.545 90.6152 88.139V85.9229C90.6152 85.856 90.6687 85.8027 90.7357 85.8027H91.1368C91.2038 85.8027 91.2573 85.856 91.2573 85.9229V88.139C91.2573 88.3735 91.3389 88.5682 91.5059 88.7349C91.673 88.9016 91.8682 88.983 92.1033 88.983C92.3403 88.983 92.5365 88.9016 92.7036 88.7349C92.8687 88.5702 92.9493 88.3754 92.9493 88.139V85.9229C92.9493 85.856 93.0027 85.8027 93.0697 85.8027H93.4767C93.5437 85.8027 93.5972 85.856 93.5972 85.9229V88.139C93.5972 88.5498 93.4505 88.9035 93.1601 89.1903C92.8687 89.4781 92.5132 89.6235 92.1033 89.6235ZM90.8551 86.044V88.1399C90.8551 88.4849 90.9746 88.7727 91.2194 89.0188C91.4632 89.264 91.7517 89.3841 92.1023 89.3841C92.452 89.3841 92.7414 89.2649 92.9891 89.0207C93.2358 88.7775 93.3553 88.4897 93.3553 88.1399V86.044H93.1902V88.1399C93.1902 88.4384 93.0833 88.6961 92.8735 88.9054C92.6618 89.1167 92.4034 89.2233 92.1033 89.2233C91.8051 89.2233 91.5467 89.1167 91.3359 88.9054C91.1242 88.6942 91.0174 88.4364 91.0174 88.1399V86.044H90.8551Z" fill="#49BFBF"/>
<path d="M99.4014 86.325H97.3714V87.5139H99.1858V87.9151H97.3714V89.104H99.4014V89.51H96.9722V85.9199H99.4014V86.325Z" fill="#49BFBF"/>
<path d="M99.402 89.63H96.9727C96.9057 89.63 96.8523 89.5767 96.8523 89.5098V85.9197C96.8523 85.8529 96.9057 85.7996 96.9727 85.7996H99.402C99.468 85.7996 99.5224 85.8529 99.5224 85.9197V86.3248C99.5224 86.3916 99.469 86.4449 99.402 86.4449H97.4924V87.3936H99.1864C99.2524 87.3936 99.3068 87.4468 99.3068 87.5137V87.9139C99.3068 87.9808 99.2524 88.034 99.1864 88.034H97.4924V88.9827H99.402C99.468 88.9827 99.5224 89.036 99.5224 89.1028V89.5088C99.5224 89.5757 99.469 89.63 99.402 89.63ZM97.0932 89.3887H99.2815V89.224H97.3719C97.3049 89.224 97.2515 89.1707 97.2515 89.1038V87.9149C97.2515 87.848 97.3059 87.7947 97.3719 87.7947H99.0659V87.6348H97.3719C97.3049 87.6348 97.2515 87.5815 97.2515 87.5147V86.3257C97.2515 86.2589 97.3059 86.2056 97.3719 86.2056H99.2815V86.0408H97.0932V89.3887Z" fill="#49BFBF"/>
<path d="M102.431 88.7994L102.797 88.6366C102.955 88.9467 103.257 89.1027 103.7 89.1027C103.944 89.1027 104.138 89.0475 104.28 88.938C104.423 88.8304 104.494 88.688 104.494 88.5145C104.484 88.2694 104.364 88.1395 104.138 88.0417C103.979 87.9738 103.857 87.9419 103.646 87.8944C103.488 87.8614 103.35 87.8217 103.232 87.7791C103.115 87.7364 102.994 87.6764 102.871 87.6037C102.625 87.4564 102.489 87.2132 102.489 86.9002C102.489 86.6095 102.592 86.3721 102.795 86.187C102.998 86.002 103.267 85.9089 103.603 85.9089C104.113 85.9089 104.511 86.1289 104.725 86.5194L104.391 86.7452C104.248 86.4545 103.984 86.3091 103.602 86.3091C103.384 86.3091 103.211 86.3615 103.083 86.469C102.954 86.5766 102.889 86.7171 102.889 86.8867C102.889 87.1124 103.035 87.282 103.326 87.3954C103.45 87.4428 103.58 87.4729 103.751 87.5078C103.833 87.5252 103.901 87.5426 103.952 87.5552C104.579 87.7277 104.893 88.0485 104.893 88.5136C104.893 88.8043 104.782 89.0417 104.565 89.2248C104.346 89.4099 104.055 89.5029 103.697 89.5029C103.122 89.5029 102.66 89.2684 102.431 88.7994Z" fill="#49BFBF"/>
<path d="M103.697 89.6229C103.054 89.6229 102.567 89.3486 102.324 88.8515C102.309 88.8225 102.307 88.7886 102.319 88.7575C102.331 88.7265 102.353 88.7023 102.383 88.6887L102.749 88.526C102.808 88.4998 102.876 88.524 102.906 88.5812C103.042 88.8506 103.303 88.9814 103.701 88.9814C103.916 88.9814 104.086 88.9339 104.207 88.8409C104.319 88.7566 104.373 88.649 104.373 88.5134C104.365 88.336 104.289 88.2372 104.09 88.151C103.942 88.088 103.825 88.057 103.619 88.0105C103.47 87.9795 103.325 87.9388 103.191 87.8913C103.073 87.8486 102.947 87.7876 102.809 87.7062C102.525 87.5357 102.368 87.2488 102.368 86.899C102.368 86.5754 102.485 86.306 102.714 86.0967C102.94 85.8913 103.239 85.7876 103.603 85.7876C104.158 85.7876 104.594 86.0269 104.831 86.4611C104.861 86.5153 104.844 86.5831 104.793 86.618L104.459 86.8438C104.43 86.8632 104.394 86.869 104.361 86.8603C104.327 86.8516 104.298 86.8283 104.284 86.7973C104.161 86.5492 103.939 86.4291 103.604 86.4291C103.413 86.4291 103.268 86.4727 103.162 86.5608C103.061 86.6461 103.011 86.7527 103.011 86.8864C103.011 86.9504 103.011 87.1432 103.371 87.2827C103.48 87.3254 103.597 87.3535 103.776 87.3903C103.848 87.4058 103.908 87.4203 103.956 87.4329L103.982 87.4388C104.668 87.6277 105.014 87.9891 105.014 88.5143C105.014 88.8409 104.889 89.1112 104.642 89.3176C104.403 89.5201 104.085 89.6229 103.697 89.6229ZM102.601 88.8564C102.818 89.1975 103.202 89.3835 103.697 89.3835C104.026 89.3835 104.293 89.2992 104.488 89.1345C104.68 88.9727 104.774 88.7701 104.774 88.5153C104.774 88.1054 104.496 87.8302 103.922 87.6723L103.899 87.6665C103.854 87.6548 103.796 87.6403 103.728 87.6267C103.567 87.5938 103.422 87.5618 103.285 87.5085C102.861 87.3448 102.771 87.0802 102.771 86.8884C102.771 86.682 102.851 86.5105 103.008 86.3787C103.156 86.2537 103.357 86.1897 103.605 86.1897C103.981 86.1897 104.259 86.3186 104.432 86.5744L104.565 86.4853C104.362 86.1907 104.025 86.0298 103.605 86.0298C103.298 86.0298 103.06 86.1103 102.878 86.276C102.699 86.4397 102.611 86.6442 102.611 86.901C102.611 87.1665 102.723 87.3748 102.935 87.5017C103.059 87.5754 103.171 87.6296 103.275 87.6674C103.397 87.712 103.531 87.7488 103.672 87.7779C103.895 87.8283 104.022 87.8622 104.187 87.9329C104.472 88.057 104.605 88.2353 104.616 88.5114C104.616 88.7275 104.526 88.9068 104.355 89.0356C104.192 89.1616 103.971 89.2256 103.702 89.2256C103.259 89.2256 102.94 89.0802 102.749 88.7934L102.601 88.8564Z" fill="#49BFBF"/>
</svg>
